<svg width="400" height="400" viewbox = "0 0 400 400"  xmlns="http://www.w3.org/2000/svg">
<!--<json>{
  "glyph": "0327,0337,0337,0337,0337,0337,0347,0300,0331,0335,0331,0337,0221,0221,0221,0221,0221,0221,0221,0221,0221,0221,0221,",
  "x0": 200,
  "y0": 497.2460661529576,
  "unit": 407.0137469341995,
  "width": 400,
  "height": 400,
  "style": {
    "color0": "black",
    "fill0": "black",
    "line0": 1,
    "color1": "black",
    "fill1": "black",
    "line1": 5,
    "color2": "red",
    "fill2": "red",
    "line2": 2,
    "color3": "#FF7900",
    "fill3": "#FF7900",
    "line3": 2,
    "color4": "yellow",
    "fill4": "yellow",
    "line4": 2,
    "color5": "green",
    "fill5": "green",
    "line5": 2,
    "color6": "blue",
    "fill6": "blue",
    "line6": 2,
    "color7": "black",
    "fill7": "white",
    "line7": 1
  },
  "shapes": [
    "0220:0327,0337,0337,0337,0337,0337,0347,0336,0336,0336,0336,0336,0321,",
    "0221:0312,0337,0306,0350,0334,0334,0334,0336,0336,0362,0203,0335,0335,0335,0335,0203,0335,0335,0335,0335,0203,0363,0334,0335,0331,0334,0334,0334,0334,0362,0203,0334,0334,0334,0334,0203,0334,0334,0334,0334,0203,0363,0306,0334,0334,0334,0330,0362,0203,0334,0334,0203,0334,0334,0203,0363,0331,0335,0335,0362,0203,0335,0335,0203,0335,0335,0203,0363,0334,0331,0335,0335,0362,0203,0335,0335,0203,0335,0335,0203,0363,0334,0331,0334,0334,0334,0362,0203,0334,0334,0203,0334,0334,0203,0363,0331,0335,0335,",
    "0222:0221,0221,0221,0221,0221,0221,",
    "0223:0222,0222,0331,0331,",
    "0224:0223,0223,0223,0223,0223,0223,0223,0223,0223,0223,0223,0223,",
    "0225:0331,0332,0331,0332,0331,0332,0331,0332,0331,0331,0332,0331,0332,0224,",
    "0226:0313,0333,0342,0336,0332,0342,0336,0333,0342,0332,0332,0342,0336,0332,0342,0333,0333,0342,0333,0333,0342,0333,0333,0342,0333,0337,0337,0337,",
    "0227:0313,0336,0333,0337,0316,0336,0342,0313,0336,0332,0342,0332,0342,0332,0342,0332,0342,0333,0333,0333,0333,0333,0342,0333,0342,0333,0342,0333,0342,0333,0337,0316,0337,0313,",
    "0230:0336,0336,0330,0336,0330,0336,0334,0362,0203,0335,0203,0203,0203,0334,0203,0335,0350,0310,0335,0337,0203,0203,0335,0335,0203,0203,0335,0335,0335,0336,0203,0334,0334,0203,0203,0203,0335,0335,0203,0363,0304,0335,0313,0337,0330,0337,0337,0331,0337,",
    "0231:0321,0342,0330,0320,0336,0230,0331,0331,0337,0350,0335,0304,",
    "0232:0231,0231,0231,0231,0231,0231,0231,0231,",
    "0233:0220,0336,0210,0232,",
    "0234:0220,0336,0335,0335,0331,0335,0331,0337,0321,0342,0332,0342,0336,0333,0337,0342,0330,0336,0336,0336,0330,0337,0366,0332,0332,0332,0367,0350,0335,0306,0350,0320,0335,0362,0203,0334,0334,0334,0334,0203,0334,0334,0334,0334,0203,0363,0335,0304,0350,0335,0304,0335,0335,0331,0331,0332,01015,0145,0154,0145,0155,0145,0156,0164,040,0144,0157,0167,0156,0365,0330,0330,0330,0330,0330,0333,0333,0333,0336,0332,0337,0333,0337,0337,",
    "0235:0220,0321,0336,0342,0335,0342,0335,0342,0335,0342,0335,0337,",
    "0236:0321,0220,0335,0336,0321,0342,0335,0335,0342,0335,0337,",
    "0237:0220,0336,0331,0332,0336,0321,0342,0335,0342,0335,0342,0335,0342,0335,0330,0330,0333,0333,0337,0337,",
    "01220:0333,0200,0336,0330,0332,0336,0327,0347,0337,0331,0333,0337,0320,",
    "01221:0333,0200,0221,0337,0313,0304,",
    "01222:0333,0200,0222,0337,0313,0304,",
    "01223:0333,0200,0223,0337,0313,0304,",
    "01224:0333,0200,0224,0337,0313,0304,",
    "01225:0333,0225,0313,0304,",
    "01226:0226,0200,",
    "01227:0227,0200,",
    "01230:0333,0200,0336,0332,0330,0230,0331,0333,0337,",
    "01231:0333,0231,",
    "01232:0333,0232,",
    "01233:0333,0233,",
    "01234:0333,0234,",
    "01235:0333,0200,0336,0330,0332,0235,0331,0333,0337,",
    "01236:0333,0200,0336,0330,0332,0236,0331,0333,0337,",
    "01237:0333,0237,",
    "0240:0220,0336,0331,0333,0336,0321,0335,0342,0335,0335,0342,0335,0330,0330,0332,0332,0337,0337,",
    "01240:0333,0200,0336,0330,0332,0210,0240,0211,0333,0331,0337,",
    "0241:0220,0336,0321,0343,0332,0350,0335,0336,0342,0334,0334,0342,0335,0304,0337,0333,0337,",
    "01241:0333,0200,0336,0332,0330,0210,0241,0211,0333,0331,0337,",
    "0242:0220,0321,0336,0343,0333,0336,0350,0335,0342,0334,0334,0342,0335,0337,0304,0332,0337,",
    "01242:0333,0200,0336,0330,0332,0210,0242,0211,0333,0331,0337,",
    "0243:0220,0336,0331,0332,0336,0321,0343,0332,0350,0334,0336,0342,0335,0335,0342,0337,0334,0334,0335,0304,0332,0330,0330,0337,0337,0333,",
    "01243:0333,0200,0336,0330,0332,0210,0243,0211,0333,0331,0337,",
    "0244:0220,0336,0331,0333,0336,0321,0343,0333,0350,0336,0335,0342,0334,0334,0342,0335,0337,0304,0333,0330,0330,0337,0337,0332,",
    "01244:0333,0200,0336,0330,0332,0210,0244,0211,0333,0331,0337,",
    "0245:0210,0332,0332,0362,0335,0203,0203,0203,0203,0334,0203,0363,0332,0332,0331,0211,",
    "01245:0333,0200,0336,0330,0332,0336,0245,0337,0333,0331,0337,",
    "0246:0210,0332,0332,0335,0306,0336,0330,0335,0335,0335,0321,0362,0203,0335,0335,0203,0364,0331,0350,0335,0337,0366,0333,0333,0333,0333,0334,0334,0334,0334,0367,0335,0336,0342,0334,0334,0342,0330,0330,0330,0330,0335,0335,0335,0304,0337,0211,",
    "01246:0333,0200,0336,0330,0332,0336,0246,",
    "0247:0330,0332,0336,0332,0336,0221,0333,0333,0333,0222,0333,0333,0333,0223,0333,0333,0333,0225,0333,0331,0331,0331,0332,0332,0332,0332,0332,0332,0332,0332,0332,0332,0332,0332,0333,0333,0226,0331,0331,0331,0333,0333,0333,0333,0333,0333,0333,0333,0333,0333,0333,0333,0333,0330,0333,0330,0330,0333,0330,0331,0332,0332,0332,0332,0332,0332,0332,0332,0332,0332,0332,0332,0227,0333,0333,0333,0230,0333,0331,0331,0331,0331,0332,0332,0332,0330,0332,0332,0332,0332,0332,0332,0333,0333,0231,0333,0333,0333,0232,0331,0333,0330,0333,0333,0233,0333,0333,0333,0234,0330,0330,0332,0330,0332,0332,0337,0337,",
    "01247:0333,0200,0336,0330,0332,0220,0336,0247,0337,0331,0333,0337,"
  ]
}</json>-->    <circle cx="200" cy = "497" r = "13024.439901894384" stroke = "#000000" stroke-width = "1" fill = "#ffffff" />
	<path d = "M-207 904 L-207 434 L200 669 L-207 904 Z" stroke = "#000000" stroke-width = "1" fill = "#000000" />	<path d = "M200 669 L607 904 L607 434 L200 669 Z" stroke = "#000000" stroke-width = "1" fill = "#000000" />	<path d = "M607 434 L1014 199 L607 -36 L607 434 Z" stroke = "#000000" stroke-width = "1" fill = "#000000" />	<path d = "M607 -36 L200 -271 L607 -506 L607 -36 Z" stroke = "#000000" stroke-width = "1" fill = "#000000" />	<path d = "M200 -271 L-207 -36 L-207 -506 L200 -271 Z" stroke = "#000000" stroke-width = "1" fill = "#000000" />	<path d = "M-207 -36 L-614 199 L-207 434 L-207 -36 Z" stroke = "#000000" stroke-width = "1" fill = "#000000" />	<path d = "M-207 434 L-71 199 L64 434 L-207 434 Z" stroke = "#000000" stroke-width = "1" fill = "#000000" />	<path d = "M64 434 L200 669 L336 434 L64 434 Z" stroke = "#000000" stroke-width = "1" fill = "#000000" />	<path d = "M336 434 L607 434 L471 199 L336 434 Z" stroke = "#000000" stroke-width = "1" fill = "#000000" />	<path d = "M471 199 L336 -36 L607 -36 L471 199 Z" stroke = "#000000" stroke-width = "1" fill = "#000000" />	<path d = "M336 -36 L64 -36 L200 -271 L336 -36 Z" stroke = "#000000" stroke-width = "1" fill = "#000000" />	<path d = "M64 -36 L-207 -36 L-71 199 L64 -36 Z" stroke = "#000000" stroke-width = "1" fill = "#000000" />	<path d = "M-71 199 L64 121 L64 278 L-71 199 Z" stroke = "#000000" stroke-width = "1" fill = "#000000" />	<path d = "M64 278 L64 434 L200 356 L64 278 Z" stroke = "#000000" stroke-width = "1" fill = "#000000" />	<path d = "M200 356 L336 434 L336 278 L200 356 Z" stroke = "#000000" stroke-width = "1" fill = "#000000" />	<path d = "M336 278 L336 121 L471 199 L336 278 Z" stroke = "#000000" stroke-width = "1" fill = "#000000" />	<path d = "M336 121 L200 43 L336 -36 L336 121 Z" stroke = "#000000" stroke-width = "1" fill = "#000000" />	<path d = "M200 43 L64 -36 L64 121 L200 43 Z" stroke = "#000000" stroke-width = "1" fill = "#000000" />	<path d = "M64 121 L155 121 L110 199 L64 121 Z" stroke = "#000000" stroke-width = "1" fill = "#000000" />	<path d = "M110 199 L64 278 L155 278 L110 199 Z" stroke = "#000000" stroke-width = "1" fill = "#000000" />	<path d = "M155 278 L200 356 L245 278 L155 278 Z" stroke = "#000000" stroke-width = "1" fill = "#000000" />	<path d = "M245 278 L290 199 L336 278 L245 278 Z" stroke = "#000000" stroke-width = "1" fill = "#000000" />	<path d = "M290 199 L245 121 L336 121 L290 199 Z" stroke = "#000000" stroke-width = "1" fill = "#000000" />	<path d = "M245 121 L200 43 L155 121 L245 121 Z" stroke = "#000000" stroke-width = "1" fill = "#000000" />	<path d = "M155 121 L200 147 L155 173 L155 121 Z" stroke = "#000000" stroke-width = "1" fill = "#000000" />	<path d = "M155 173 L110 199 L155 225 L155 173 Z" stroke = "#000000" stroke-width = "1" fill = "#000000" />	<path d = "M155 225 L155 278 L200 252 L155 225 Z" stroke = "#000000" stroke-width = "1" fill = "#000000" />	<path d = "M200 252 L245 225 L245 278 L200 252 Z" stroke = "#000000" stroke-width = "1" fill = "#000000" />	<path d = "M245 225 L245 173 L290 199 L245 225 Z" stroke = "#000000" stroke-width = "1" fill = "#000000" />	<path d = "M245 173 L245 121 L200 147 L245 173 Z" stroke = "#000000" stroke-width = "1" fill = "#000000" />	<path d = "M200 147 L215 173 L185 173 L200 147 Z" stroke = "#000000" stroke-width = "1" fill = "#000000" />	<path d = "M185 173 L155 173 L170 199 L185 173 Z" stroke = "#000000" stroke-width = "1" fill = "#000000" />	<path d = "M170 199 L155 225 L185 225 L170 199 Z" stroke = "#000000" stroke-width = "1" fill = "#000000" />	<path d = "M185 225 L215 225 L200 252 L185 225 Z" stroke = "#000000" stroke-width = "1" fill = "#000000" />	<path d = "M215 225 L230 199 L245 225 L215 225 Z" stroke = "#000000" stroke-width = "1" fill = "#000000" />	<path d = "M230 199 L245 173 L215 173 L230 199 Z" stroke = "#000000" stroke-width = "1" fill = "#000000" />	<path d = "M215 173 L215 191 L200 182 L215 173 Z" stroke = "#000000" stroke-width = "1" fill = "#000000" />	<path d = "M200 182 L185 173 L185 191 L200 182 Z" stroke = "#000000" stroke-width = "1" fill = "#000000" />	<path d = "M185 191 L170 199 L185 208 L185 191 Z" stroke = "#000000" stroke-width = "1" fill = "#000000" />	<path d = "M185 208 L200 217 L185 225 L185 208 Z" stroke = "#000000" stroke-width = "1" fill = "#000000" />	<path d = "M200 217 L215 208 L215 225 L200 217 Z" stroke = "#000000" stroke-width = "1" fill = "#000000" />	<path d = "M215 208 L230 199 L215 191 L215 208 Z" stroke = "#000000" stroke-width = "1" fill = "#000000" />	<path d = "M215 191 L210 199 L205 191 L215 191 Z" stroke = "#000000" stroke-width = "1" fill = "#000000" />	<path d = "M205 191 L200 182 L195 191 L205 191 Z" stroke = "#000000" stroke-width = "1" fill = "#000000" />	<path d = "M195 191 L185 191 L190 199 L195 191 Z" stroke = "#000000" stroke-width = "1" fill = "#000000" />	<path d = "M190 199 L195 208 L185 208 L190 199 Z" stroke = "#000000" stroke-width = "1" fill = "#000000" />	<path d = "M195 208 L205 208 L200 217 L195 208 Z" stroke = "#000000" stroke-width = "1" fill = "#000000" />	<path d = "M205 208 L215 208 L210 199 L205 208 Z" stroke = "#000000" stroke-width = "1" fill = "#000000" />	<path d = "M210 199 L205 202 L205 196 L210 199 Z" stroke = "#000000" stroke-width = "1" fill = "#000000" />	<path d = "M205 196 L205 191 L200 193 L205 196 Z" stroke = "#000000" stroke-width = "1" fill = "#000000" />	<path d = "M200 193 L195 191 L195 196 L200 193 Z" stroke = "#000000" stroke-width = "1" fill = "#000000" />	<path d = "M195 196 L195 202 L190 199 L195 196 Z" stroke = "#000000" stroke-width = "1" fill = "#000000" />	<path d = "M195 202 L200 205 L195 208 L195 202 Z" stroke = "#000000" stroke-width = "1" fill = "#000000" />	<path d = "M200 205 L205 208 L205 202 L200 205 Z" stroke = "#000000" stroke-width = "1" fill = "#000000" />	<path d = "M205 202 L202 202 L203 199 L205 202 Z" stroke = "#000000" stroke-width = "1" fill = "#000000" />	<path d = "M203 199 L205 196 L202 196 L203 199 Z" stroke = "#000000" stroke-width = "1" fill = "#000000" />	<path d = "M202 196 L200 193 L198 196 L202 196 Z" stroke = "#000000" stroke-width = "1" fill = "#000000" />	<path d = "M198 196 L197 199 L195 196 L198 196 Z" stroke = "#000000" stroke-width = "1" fill = "#000000" />	<path d = "M197 199 L198 202 L195 202 L197 199 Z" stroke = "#000000" stroke-width = "1" fill = "#000000" />	<path d = "M198 202 L200 205 L202 202 L198 202 Z" stroke = "#000000" stroke-width = "1" fill = "#000000" />	<path d = "M202 202 L200 201 L202 200 L202 202 Z" stroke = "#000000" stroke-width = "1" fill = "#000000" />	<path d = "M202 200 L203 199 L202 198 L202 200 Z" stroke = "#000000" stroke-width = "1" fill = "#000000" />	<path d = "M202 198 L202 196 L200 197 L202 198 Z" stroke = "#000000" stroke-width = "1" fill = "#000000" />	<path d = "M200 197 L198 198 L198 196 L200 197 Z" stroke = "#000000" stroke-width = "1" fill = "#000000" />	<path d = "M198 198 L198 200 L197 199 L198 198 Z" stroke = "#000000" stroke-width = "1" fill = "#000000" />	<path d = "M198 200 L198 202 L200 201 L198 200 Z" stroke = "#000000" stroke-width = "1" fill = "#000000" /></svg>