<svg width="700" height="800" viewbox = "0 0 700 800"  xmlns="http://www.w3.org/2000/svg">
<!--<json>{
  "glyph": "0331,0333,0232,",
  "x0": 350,
  "y0": 350,
  "unit": 322.1020000000002,
  "width": 700,
  "height": 800,
  "style": {
    "color0": "black",
    "fill0": "black",
    "line0": 1,
    "color1": "black",
    "fill1": "black",
    "line1": 5,
    "color2": "red",
    "fill2": "red",
    "line2": 2,
    "color3": "#FF7900",
    "fill3": "#FF7900",
    "line3": 2,
    "color4": "yellow",
    "fill4": "yellow",
    "line4": 2,
    "color5": "green",
    "fill5": "green",
    "line5": 2,
    "color6": "blue",
    "fill6": "blue",
    "line6": 2,
    "color7": "purple",
    "fill7": "purple",
    "line7": 2
  },
  "shapes": [
    "0220:0304,0313,0320,0200,0322,0336,0332,0337,0342,0336,0330,0333,0334,0337,0342,0336,0335,0331,0336,0332,0337,0342,0336,0333,0330,0334,0337,0342,0335,0336,0331,0336,0332,0337,0342,0336,0333,0330,0334,0337,0342,0335,0336,0331,0336,0332,0337,0342,0336,0333,0330,0334,0337,0342,0335,0336,0331,0337,0337,0337,0337,",
    "0221:0304,0320,0362,0203,0334,0350,0334,0310,0337,0203,0334,0334,0334,0336,0203,0354,0334,0334,0334,0336,0322,0201,0335,0335,0335,0336,0201,0334,0334,0334,0336,0201,0335,0335,0335,0336,0201,0334,0334,0334,0336,0201,0335,0335,0335,0336,0201,0334,0334,0334,0336,0201,0335,0335,0335,0336,0201,0334,0334,0330,0337,0337,0337,0337,0337,0337,0337,0337,0331,0313,0304,0320,",
    "0222:0306,0320,0362,0203,0334,0334,0203,0334,0334,0203,0354,0334,0334,0313,0336,0322,0330,0334,0201,0334,0334,0201,0334,0334,0201,0334,0331,0337,0320,",
    "0223:0304,0335,0335,0331,0306,0350,0362,0203,0335,0335,0335,0335,0335,0312,0336,0203,0335,0335,0203,0354,0335,0335,0335,0335,0335,0337,0322,0335,0336,0330,0334,0334,0334,0334,0313,0336,0342,0337,0312,0335,0336,0342,0334,0334,0342,0330,0335,0335,0335,0335,0335,0336,0201,0334,0334,0342,0335,0335,0334,0334,0334,0336,0342,0334,0334,0342,0335,0335,0335,0335,0335,0337,0331,0335,0337,0330,0334,0337,0331,0334,0337,0320,0330,0304,0335,0335,0306,0350,",
    "0224:0305,0311,0362,0203,0334,0334,0203,0334,0350,0334,0336,0203,0354,0334,0334,0334,0337,0322,0336,0334,0201,0335,0335,0335,0335,0336,0201,0334,0334,0334,0334,0201,0335,0335,0335,0336,0335,0201,0334,0334,0334,0334,0201,0335,0335,0335,0335,0336,0201,0334,0334,0334,0334,0201,0335,0335,0335,0335,0336,0201,0334,0334,0334,0334,0201,0335,0335,0335,0335,0336,0201,0334,0334,0334,0337,0330,0337,0337,0337,0337,0337,0331,0320,",
    "0225:0304,0330,0335,0335,0305,0350,0311,0362,0203,0335,0335,0335,0335,0336,0203,0335,0335,0203,0354,0335,0335,0335,0322,0335,0335,0330,0334,0334,0334,0336,0334,0342,0335,0342,0330,0335,0335,0335,0336,0335,0201,0334,0334,0334,0334,0201,0335,0335,0335,0335,0336,0201,0334,0334,0334,0334,0201,0335,0335,0335,0336,0335,0201,0334,0334,0334,0334,0342,0335,0331,0337,0331,0337,0331,0335,0335,0337,0335,0331,0335,0336,0201,0335,0335,0335,0335,0201,0334,0334,0334,0334,0336,0201,0335,0335,0335,0335,0201,0334,0334,0334,0334,0336,0201,0335,0335,0335,0335,0201,0335,0335,0335,0331,0337,0337,0337,0337,0337,0320,0304,0335,0335,0331,0305,0350,",
    "0226:0313,0333,0342,0336,0332,0342,0336,0333,0342,0332,0332,0342,0336,0332,0342,0333,0333,0342,0333,0333,0342,0333,0333,0342,0333,0337,0337,0337,",
    "0227:0313,0336,0333,0337,0316,0336,0342,0313,0336,0332,0342,0332,0342,0332,0342,0332,0342,0333,0333,0333,0333,0333,0342,0333,0342,0333,0342,0333,0342,0333,0337,0316,0337,0313,",
    "0230:0322,0226,0226,0226,0226,0226,0226,0334,0226,0334,0227,0227,0227,0227,0227,0227,0334,0227,0334,0320,0362,0203,0335,0203,0203,0203,0203,0203,0203,0335,0203,0335,0203,0203,0203,0203,0203,0203,0335,0354,0313,",
    "0231:0222,0334,0223,0334,0336,0330,0335,0335,0362,0203,0334,0334,0334,0337,0203,0334,0334,0334,0334,0334,0336,0313,0337,0203,0354,0334,0334,0334,0334,0313,0336,0334,0334,0337,0312,0336,0322,0335,0201,0335,0335,0335,0335,0335,0336,0201,0334,0334,0334,0334,0334,0336,0201,0335,0335,0335,0335,0336,0335,0201,0334,0334,0334,0334,0334,0336,0201,0331,0334,0337,0330,0335,0337,0331,0334,0337,0330,0335,0337,0331,0334,0337,0335,0335,0313,0336,0335,0335,0335,0335,0330,0334,0334,0334,0312,0337,0306,",
    "0232:0231,0330,0220,0332,0221,0335,0331,0335,0335,0331,0224,0330,0335,0331,0225,0335,0335,0336,0330,0334,0334,0334,0337,0304,0335,0333,0331,0331,0332,0332,0330,0314,0336,0331,0313,0230,0333,0333,0333,0333,0333,0333,0330,0314,0337,0313,",
    "0233:0313,0304,0336,0332,0336,0336,0330,0334,0362,0203,0334,0203,0335,0203,0203,0203,0335,0203,0203,0203,0335,0203,0334,0203,0203,0334,0203,0335,0203,0203,0203,0335,0203,0203,0203,0335,0203,0334,0203,0203,0334,0203,0335,0203,0203,0203,0335,0203,0203,0203,0335,0203,0334,0203,0203,0334,0203,0335,0203,0203,0203,0335,0203,0203,0203,0335,0203,0334,0203,0354,0335,0331,0333,0333,0333,0333,0337,0337,0337,",
    "0234:0322,0336,0336,0330,0332,0362,0203,0203,0203,0334,0203,0203,0203,0334,0203,0203,0203,0334,0203,0203,0203,0354,0335,0335,0335,0331,0342,0332,0332,0332,0342,0335,0337,0337,0201,0334,0201,0334,0336,0336,0342,0335,0336,0332,0334,0335,0335,0335,0337,0337,0337,0342,0335,0335,0336,0336,0331,0331,0331,0336,0333,0334,0337,0342,0336,0332,0337,0337,0337,0342,0335,0336,0336,0336,0331,0337,0332,0332,0342,0333,0333,0337,0337,0321,0200,0336,0332,0333,0337,0320,",
    "0235:0312,0336,0330,0306,0335,0335,0350,0335,0337,0362,0203,0335,0335,0335,0335,0203,0335,0335,0335,0335,0203,0354,0334,0336,0331,0337,0304,0313,",
    "0236:0313,0336,0316,0336,0332,0336,0347,0337,0333,0333,0336,0347,0337,0332,0337,0313,0337,",
    "0237:0200,0336,0330,0332,0336,0330,0325,0235,0331,0331,0335,0335,0235,0331,0322,0335,0330,0235,0331,0335,0335,0330,0235,0334,0326,0330,0235,0331,0331,0335,0335,0235,0333,0333,0325,0336,0341,0335,0335,0330,0330,0330,0330,0322,0341,0320,0337,0350,0335,0304,0236,0350,0335,0304,0330,0236,0330,0350,0335,0304,0236,0350,0335,0304,0330,0236,0330,0350,0335,0304,0236,0350,0335,0304,0330,0236,0330,0350,0335,0304,0236,0350,0335,0330,0304,0236,0333,0331,0333,0336,0331,0333,0337,0314,0337,0200,0336,0313,0336,0331,0333,0337,0337,0337,0336,0336,0330,0332,0327,0336,0330,0332,0336,0336,0332,0332,0332,0332,0331,0331,0331,0332,0332,0332,0333,0333,070,040,0147,0162,0145,0145,0156,0365,0332,0332,0332,0332,0332,0332,0332,0332,061,061,040,0147,0162,0145,0171,0365,061,060,040,0160,0165,0162,0160,0154,0145,0330,0330,0330,0330,0330,0330,0332,0332,0365,061,062,040,0167,0150,0151,0164,0145,0330,0330,0330,0330,0330,0330,0330,0365,071,040,0142,0154,0165,0145,0333,0333,0333,0333,0333,0333,0333,0333,0333,0365,065,040,0162,0145,0144,0333,0333,0333,0333,0333,0333,0333,0333,0333,0365,067,040,0171,0145,0154,0154,0157,0167,0331,0331,0331,0331,0331,0332,0365,066,040,0157,0162,0141,0156,0147,0145,0331,0331,0331,0331,0331,0331,0331,0331,0365,0331,0331,0331,0331,0331,0331,0333,0333,0333,0333,0333,0331,0331,0333,0333,0331,0333,0333,0333,0337,0337,0337,0337,0337,0320,",
    "01220:0333,0220,",
    "01221:0333,0221,",
    "01222:0333,0222,0304,",
    "01223:0333,0223,0314,0304,0313,",
    "01224:0333,0224,0313,0304,",
    "01225:0333,0225,0313,0304,",
    "01226:0226,0200,",
    "01227:0227,0200,",
    "01230:0230,0333,0333,0333,0333,0333,0333,",
    "01231:0333,0231,",
    "01232:0333,0232,",
    "01233:0333,0233,",
    "01234:0333,0234,",
    "01235:0333,0200,0336,0330,0332,0235,0331,0333,0337,",
    "01236:0333,0200,0336,0330,0332,0236,0331,0333,0337,",
    "01237:0333,0237,",
    "0240:0220,0336,0331,0333,0336,0321,0335,0342,0335,0335,0342,0335,0330,0330,0332,0332,0337,0337,",
    "01240:0333,0200,0336,0330,0332,0210,0240,0211,0333,0331,0337,",
    "0241:0220,0336,0321,0343,0332,0350,0335,0336,0342,0334,0334,0342,0335,0304,0337,0333,0337,",
    "01241:0333,0200,0336,0332,0330,0210,0241,0211,0333,0331,0337,",
    "0242:0220,0321,0336,0343,0333,0336,0350,0335,0342,0334,0334,0342,0335,0337,0304,0332,0337,",
    "01242:0333,0200,0336,0330,0332,0210,0242,0211,0333,0331,0337,",
    "0243:0220,0336,0331,0332,0336,0321,0343,0332,0350,0334,0336,0342,0335,0335,0342,0337,0334,0334,0335,0304,0332,0330,0330,0337,0337,0333,",
    "01243:0333,0200,0336,0330,0332,0210,0243,0211,0333,0331,0337,",
    "0244:0220,0336,0331,0333,0336,0321,0343,0333,0350,0336,0335,0342,0334,0334,0342,0335,0337,0304,0333,0330,0330,0337,0337,0332,",
    "01244:0333,0200,0336,0330,0332,0210,0244,0211,0333,0331,0337,",
    "0245:0210,0332,0332,0362,0335,0203,0203,0203,0203,0334,0203,0363,0332,0332,0331,0211,",
    "01245:0333,0200,0336,0330,0332,0336,0245,0337,0333,0331,0337,",
    "0246:0210,0332,0332,0335,0306,0336,0330,0335,0335,0335,0321,0362,0203,0335,0335,0203,0364,0331,0350,0335,0337,0366,0333,0333,0333,0333,0334,0334,0334,0334,0367,0335,0336,0342,0334,0334,0342,0330,0330,0330,0330,0335,0335,0335,0304,0337,0211,",
    "01246:0333,0200,0336,0330,0332,0336,0246,",
    "0247:0330,0332,0336,0332,0336,0221,0333,0333,0333,0222,0333,0333,0333,0223,0333,0333,0333,0225,0333,0331,0331,0331,0332,0332,0332,0332,0332,0332,0332,0332,0332,0332,0332,0332,0333,0333,0226,0331,0331,0331,0333,0333,0333,0333,0333,0333,0333,0333,0333,0333,0333,0333,0333,0330,0333,0330,0330,0333,0330,0331,0332,0332,0332,0332,0332,0332,0332,0332,0332,0332,0332,0332,0227,0333,0333,0333,0230,0333,0331,0331,0331,0331,0332,0332,0332,0330,0332,0332,0332,0332,0332,0332,0333,0333,0231,0333,0333,0333,0232,0331,0333,0330,0333,0333,0233,0333,0333,0333,0234,0330,0330,0332,0330,0332,0332,0337,0337,",
    "01247:0333,0200,0336,0330,0332,0220,0336,0247,0337,0331,0333,0337,"
  ]
}</json>-->	<path d = "M672 672 L672 350 L393 511 L672 672 Z" stroke = "#000000" stroke-width = "1" fill = "none" />    <line x1="672" y1="511" x2="533" y2="431" style="stroke:#ff0000;stroke-width:2" />
    <line x1="533" y1="431" x2="533" y2="592" style="stroke:#ff0000;stroke-width:2" />
    <line x1="533" y1="592" x2="672" y2="511" style="stroke:#ff0000;stroke-width:2" />
	<path d = "M393 511 L672 672 L486 672 L393 511 Z" stroke = "#000000" stroke-width = "1" fill = "none" />    <line x1="486" y1="672" x2="533" y2="592" style="stroke:#ff0000;stroke-width:2" />
    <line x1="486" y1="672" x2="579" y2="618" style="stroke:#ff0000;stroke-width:2" />
    <line x1="486" y1="672" x2="486" y2="565" style="stroke:#ff0000;stroke-width:2" />
    <line x1="486" y1="565" x2="517" y2="618" style="stroke:#ff0000;stroke-width:2" />
    <line x1="517" y1="618" x2="579" y2="618" style="stroke:#ff0000;stroke-width:2" />
    <line x1="517" y1="618" x2="548" y2="601" style="stroke:#ff0000;stroke-width:2" />
    <line x1="517" y1="618" x2="517" y2="583" style="stroke:#ff0000;stroke-width:2" />
	<path d = "M486 672 L393 511 L114 672 L486 672 Z" stroke = "#000000" stroke-width = "1" fill = "none" />    <line x1="486" y1="672" x2="300" y2="565" style="stroke:#ff0000;stroke-width:2" />
    <line x1="300" y1="565" x2="424" y2="565" style="stroke:#ff0000;stroke-width:2" />
    <line x1="424" y1="565" x2="362" y2="529" style="stroke:#ff0000;stroke-width:2" />
    <line x1="362" y1="529" x2="403" y2="529" style="stroke:#ff0000;stroke-width:2" />
    <line x1="403" y1="529" x2="383" y2="517" style="stroke:#ff0000;stroke-width:2" />
	<path d = "M672 350 L672 28 L350 28 L350 350 L672 350 Z" stroke = "#000000" stroke-width = "1" fill = "none" />    <line x1="511" y1="350" x2="511" y2="28" style="stroke:#ff0000;stroke-width:2" />
    <line x1="672" y1="189" x2="350" y2="189" style="stroke:#ff0000;stroke-width:2" />
    <line x1="592" y1="350" x2="592" y2="189" style="stroke:#ff0000;stroke-width:2" />
    <line x1="672" y1="269" x2="511" y2="269" style="stroke:#ff0000;stroke-width:2" />
    <line x1="632" y1="350" x2="632" y2="269" style="stroke:#ff0000;stroke-width:2" />
    <line x1="672" y1="310" x2="592" y2="310" style="stroke:#ff0000;stroke-width:2" />
    <line x1="652" y1="350" x2="652" y2="310" style="stroke:#ff0000;stroke-width:2" />
    <line x1="672" y1="330" x2="632" y2="330" style="stroke:#ff0000;stroke-width:2" />
	<path d = "M350 350 L350 28 L28 350 L350 350 Z" stroke = "#000000" stroke-width = "1" fill = "none" />    <line x1="350" y1="350" x2="189" y2="189" style="stroke:#ff0000;stroke-width:2" />
    <line x1="189" y1="189" x2="350" y2="189" style="stroke:#ff0000;stroke-width:2" />
    <line x1="350" y1="189" x2="269" y2="108" style="stroke:#ff0000;stroke-width:2" />
    <line x1="269" y1="108" x2="350" y2="108" style="stroke:#ff0000;stroke-width:2" />
    <line x1="350" y1="108" x2="310" y2="68" style="stroke:#ff0000;stroke-width:2" />
    <line x1="310" y1="68" x2="350" y2="68" style="stroke:#ff0000;stroke-width:2" />
    <line x1="350" y1="68" x2="330" y2="48" style="stroke:#ff0000;stroke-width:2" />
    <line x1="330" y1="48" x2="350" y2="48" style="stroke:#ff0000;stroke-width:2" />
	<path d = "M350 350 L28 350 L288 539 L350 350 Z" stroke = "#000000" stroke-width = "1" fill = "none" />    <line x1="350" y1="350" x2="189" y2="467" style="stroke:#ff0000;stroke-width:2" />
    <line x1="189" y1="467" x2="227" y2="350" style="stroke:#ff0000;stroke-width:2" />
    <line x1="227" y1="350" x2="127" y2="422" style="stroke:#ff0000;stroke-width:2" />
    <line x1="127" y1="422" x2="151" y2="350" style="stroke:#ff0000;stroke-width:2" />
    <line x1="151" y1="350" x2="89" y2="395" style="stroke:#ff0000;stroke-width:2" />
    <line x1="89" y1="395" x2="104" y2="350" style="stroke:#ff0000;stroke-width:2" />
    <line x1="104" y1="350" x2="66" y2="378" style="stroke:#ff0000;stroke-width:2" />
    <line x1="66" y1="378" x2="75" y2="350" style="stroke:#ff0000;stroke-width:2" />
    <line x1="75" y1="350" x2="51" y2="367" style="stroke:#ff0000;stroke-width:2" />
    <line x1="51" y1="367" x2="57" y2="350" style="stroke:#ff0000;stroke-width:2" />
	<path d = "M28 350 L288 539 L89 539 L28 350 Z" stroke = "#000000" stroke-width = "1" fill = "none" />    <line x1="89" y1="539" x2="127" y2="422" style="stroke:#ff0000;stroke-width:2" />
    <line x1="89" y1="539" x2="189" y2="467" style="stroke:#ff0000;stroke-width:2" />
    <line x1="189" y1="467" x2="165" y2="539" style="stroke:#ff0000;stroke-width:2" />
    <line x1="165" y1="539" x2="227" y2="495" style="stroke:#ff0000;stroke-width:2" />
    <line x1="227" y1="495" x2="212" y2="539" style="stroke:#ff0000;stroke-width:2" />
    <line x1="212" y1="539" x2="250" y2="512" style="stroke:#ff0000;stroke-width:2" />
    <line x1="250" y1="512" x2="241" y2="539" style="stroke:#ff0000;stroke-width:2" />
    <line x1="241" y1="539" x2="265" y2="522" style="stroke:#ff0000;stroke-width:2" />
    <line x1="127" y1="422" x2="66" y2="467" style="stroke:#ff0000;stroke-width:2" />
    <line x1="66" y1="467" x2="89" y2="395" style="stroke:#ff0000;stroke-width:2" />
    <line x1="89" y1="395" x2="51" y2="422" style="stroke:#ff0000;stroke-width:2" />
    <line x1="51" y1="422" x2="66" y2="378" style="stroke:#ff0000;stroke-width:2" />
    <line x1="66" y1="378" x2="42" y2="395" style="stroke:#ff0000;stroke-width:2" />
    <line x1="42" y1="395" x2="51" y2="367" style="stroke:#ff0000;stroke-width:2" />
    <line x1="135" y1="779" x2="135" y2="672" style="stroke:#ff0000;stroke-width:2" />
    <line x1="82" y1="779" x2="82" y2="726" style="stroke:#ff0000;stroke-width:2" />
    <line x1="108" y1="779" x2="108" y2="753" style="stroke:#ff0000;stroke-width:2" />
    <line x1="55" y1="779" x2="55" y2="753" style="stroke:#ff0000;stroke-width:2" />
    <line x1="41" y1="779" x2="41" y2="766" style="stroke:#ff0000;stroke-width:2" />
    <line x1="68" y1="779" x2="68" y2="766" style="stroke:#ff0000;stroke-width:2" />
    <line x1="95" y1="779" x2="95" y2="766" style="stroke:#ff0000;stroke-width:2" />
    <line x1="122" y1="779" x2="122" y2="766" style="stroke:#ff0000;stroke-width:2" />
    <line x1="243" y1="779" x2="243" y2="672" style="stroke:#ff0000;stroke-width:2" />
    <line x1="189" y1="779" x2="189" y2="726" style="stroke:#ff0000;stroke-width:2" />
    <line x1="216" y1="779" x2="216" y2="753" style="stroke:#ff0000;stroke-width:2" />
    <line x1="162" y1="779" x2="162" y2="753" style="stroke:#ff0000;stroke-width:2" />
    <line x1="149" y1="779" x2="149" y2="766" style="stroke:#ff0000;stroke-width:2" />
    <line x1="176" y1="779" x2="176" y2="766" style="stroke:#ff0000;stroke-width:2" />
    <line x1="202" y1="779" x2="202" y2="766" style="stroke:#ff0000;stroke-width:2" />
    <line x1="229" y1="779" x2="229" y2="766" style="stroke:#ff0000;stroke-width:2" />
    <line x1="350" y1="779" x2="350" y2="672" style="stroke:#ff0000;stroke-width:2" />
    <line x1="296" y1="779" x2="296" y2="726" style="stroke:#ff0000;stroke-width:2" />
    <line x1="323" y1="779" x2="323" y2="753" style="stroke:#ff0000;stroke-width:2" />
    <line x1="269" y1="779" x2="269" y2="753" style="stroke:#ff0000;stroke-width:2" />
    <line x1="256" y1="779" x2="256" y2="766" style="stroke:#ff0000;stroke-width:2" />
    <line x1="283" y1="779" x2="283" y2="766" style="stroke:#ff0000;stroke-width:2" />
    <line x1="310" y1="779" x2="310" y2="766" style="stroke:#ff0000;stroke-width:2" />
    <line x1="337" y1="779" x2="337" y2="766" style="stroke:#ff0000;stroke-width:2" />
    <line x1="457" y1="779" x2="457" y2="672" style="stroke:#ff0000;stroke-width:2" />
    <line x1="404" y1="779" x2="404" y2="726" style="stroke:#ff0000;stroke-width:2" />
    <line x1="431" y1="779" x2="431" y2="753" style="stroke:#ff0000;stroke-width:2" />
    <line x1="377" y1="779" x2="377" y2="753" style="stroke:#ff0000;stroke-width:2" />
    <line x1="363" y1="779" x2="363" y2="766" style="stroke:#ff0000;stroke-width:2" />
    <line x1="390" y1="779" x2="390" y2="766" style="stroke:#ff0000;stroke-width:2" />
    <line x1="417" y1="779" x2="417" y2="766" style="stroke:#ff0000;stroke-width:2" />
    <line x1="444" y1="779" x2="444" y2="766" style="stroke:#ff0000;stroke-width:2" />
    <line x1="565" y1="779" x2="565" y2="672" style="stroke:#ff0000;stroke-width:2" />
    <line x1="511" y1="779" x2="511" y2="726" style="stroke:#ff0000;stroke-width:2" />
    <line x1="538" y1="779" x2="538" y2="753" style="stroke:#ff0000;stroke-width:2" />
    <line x1="484" y1="779" x2="484" y2="753" style="stroke:#ff0000;stroke-width:2" />
    <line x1="471" y1="779" x2="471" y2="766" style="stroke:#ff0000;stroke-width:2" />
    <line x1="498" y1="779" x2="498" y2="766" style="stroke:#ff0000;stroke-width:2" />
    <line x1="524" y1="779" x2="524" y2="766" style="stroke:#ff0000;stroke-width:2" />
    <line x1="551" y1="779" x2="551" y2="766" style="stroke:#ff0000;stroke-width:2" />
    <line x1="672" y1="779" x2="672" y2="672" style="stroke:#ff0000;stroke-width:2" />
    <line x1="618" y1="779" x2="618" y2="726" style="stroke:#ff0000;stroke-width:2" />
    <line x1="645" y1="779" x2="645" y2="753" style="stroke:#ff0000;stroke-width:2" />
    <line x1="592" y1="779" x2="592" y2="753" style="stroke:#ff0000;stroke-width:2" />
    <line x1="578" y1="779" x2="578" y2="766" style="stroke:#ff0000;stroke-width:2" />
    <line x1="605" y1="779" x2="605" y2="766" style="stroke:#ff0000;stroke-width:2" />
    <line x1="632" y1="779" x2="632" y2="766" style="stroke:#ff0000;stroke-width:2" />
    <line x1="659" y1="779" x2="659" y2="766" style="stroke:#ff0000;stroke-width:2" />
    <line x1="672" y1="672" x2="565" y2="672" style="stroke:#ff0000;stroke-width:2" />
    <line x1="672" y1="726" x2="618" y2="726" style="stroke:#ff0000;stroke-width:2" />
    <line x1="672" y1="699" x2="645" y2="699" style="stroke:#ff0000;stroke-width:2" />
    <line x1="672" y1="753" x2="645" y2="753" style="stroke:#ff0000;stroke-width:2" />
    <line x1="672" y1="766" x2="659" y2="766" style="stroke:#ff0000;stroke-width:2" />
    <line x1="672" y1="739" x2="659" y2="739" style="stroke:#ff0000;stroke-width:2" />
    <line x1="672" y1="712" x2="659" y2="712" style="stroke:#ff0000;stroke-width:2" />
    <line x1="672" y1="686" x2="659" y2="686" style="stroke:#ff0000;stroke-width:2" />
    <line x1="618" y1="672" x2="618" y2="694" style="stroke:#ff0000;stroke-width:2" />
    <line x1="629" y1="672" x2="629" y2="683" style="stroke:#ff0000;stroke-width:2" />
    <line x1="640" y1="672" x2="640" y2="683" style="stroke:#ff0000;stroke-width:2" />
    <line x1="651" y1="672" x2="651" y2="683" style="stroke:#ff0000;stroke-width:2" />
    <line x1="661" y1="672" x2="661" y2="683" style="stroke:#ff0000;stroke-width:2" />
    <line x1="608" y1="672" x2="608" y2="683" style="stroke:#ff0000;stroke-width:2" />
    <line x1="597" y1="672" x2="597" y2="683" style="stroke:#ff0000;stroke-width:2" />
    <line x1="586" y1="672" x2="586" y2="683" style="stroke:#ff0000;stroke-width:2" />
    <line x1="575" y1="672" x2="575" y2="683" style="stroke:#ff0000;stroke-width:2" />
    <line x1="511" y1="672" x2="511" y2="694" style="stroke:#ff0000;stroke-width:2" />
    <line x1="522" y1="672" x2="522" y2="683" style="stroke:#ff0000;stroke-width:2" />
    <line x1="533" y1="672" x2="533" y2="683" style="stroke:#ff0000;stroke-width:2" />
    <line x1="543" y1="672" x2="543" y2="683" style="stroke:#ff0000;stroke-width:2" />
    <line x1="554" y1="672" x2="554" y2="683" style="stroke:#ff0000;stroke-width:2" />
    <line x1="500" y1="672" x2="500" y2="683" style="stroke:#ff0000;stroke-width:2" />
    <line x1="490" y1="672" x2="490" y2="683" style="stroke:#ff0000;stroke-width:2" />
    <line x1="479" y1="672" x2="479" y2="683" style="stroke:#ff0000;stroke-width:2" />
    <line x1="468" y1="672" x2="468" y2="683" style="stroke:#ff0000;stroke-width:2" />
    <line x1="404" y1="672" x2="404" y2="694" style="stroke:#ff0000;stroke-width:2" />
    <line x1="414" y1="672" x2="414" y2="683" style="stroke:#ff0000;stroke-width:2" />
    <line x1="425" y1="672" x2="425" y2="683" style="stroke:#ff0000;stroke-width:2" />
    <line x1="436" y1="672" x2="436" y2="683" style="stroke:#ff0000;stroke-width:2" />
    <line x1="447" y1="672" x2="447" y2="683" style="stroke:#ff0000;stroke-width:2" />
    <line x1="393" y1="672" x2="393" y2="683" style="stroke:#ff0000;stroke-width:2" />
    <line x1="382" y1="672" x2="382" y2="683" style="stroke:#ff0000;stroke-width:2" />
    <line x1="371" y1="672" x2="371" y2="683" style="stroke:#ff0000;stroke-width:2" />
    <line x1="361" y1="672" x2="361" y2="683" style="stroke:#ff0000;stroke-width:2" />
    <line x1="296" y1="672" x2="296" y2="694" style="stroke:#ff0000;stroke-width:2" />
    <line x1="307" y1="672" x2="307" y2="683" style="stroke:#ff0000;stroke-width:2" />
    <line x1="318" y1="672" x2="318" y2="683" style="stroke:#ff0000;stroke-width:2" />
    <line x1="329" y1="672" x2="329" y2="683" style="stroke:#ff0000;stroke-width:2" />
    <line x1="339" y1="672" x2="339" y2="683" style="stroke:#ff0000;stroke-width:2" />
    <line x1="286" y1="672" x2="286" y2="683" style="stroke:#ff0000;stroke-width:2" />
    <line x1="275" y1="672" x2="275" y2="683" style="stroke:#ff0000;stroke-width:2" />
    <line x1="264" y1="672" x2="264" y2="683" style="stroke:#ff0000;stroke-width:2" />
    <line x1="253" y1="672" x2="253" y2="683" style="stroke:#ff0000;stroke-width:2" />
    <line x1="189" y1="672" x2="189" y2="694" style="stroke:#ff0000;stroke-width:2" />
    <line x1="200" y1="672" x2="200" y2="683" style="stroke:#ff0000;stroke-width:2" />
    <line x1="210" y1="672" x2="210" y2="683" style="stroke:#ff0000;stroke-width:2" />
    <line x1="221" y1="672" x2="221" y2="683" style="stroke:#ff0000;stroke-width:2" />
    <line x1="232" y1="672" x2="232" y2="683" style="stroke:#ff0000;stroke-width:2" />
    <line x1="178" y1="672" x2="178" y2="683" style="stroke:#ff0000;stroke-width:2" />
    <line x1="167" y1="672" x2="167" y2="683" style="stroke:#ff0000;stroke-width:2" />
    <line x1="157" y1="672" x2="157" y2="683" style="stroke:#ff0000;stroke-width:2" />
    <line x1="146" y1="672" x2="146" y2="683" style="stroke:#ff0000;stroke-width:2" />
    <line x1="82" y1="672" x2="82" y2="694" style="stroke:#ff0000;stroke-width:2" />
    <line x1="92" y1="672" x2="92" y2="683" style="stroke:#ff0000;stroke-width:2" />
    <line x1="103" y1="672" x2="103" y2="683" style="stroke:#ff0000;stroke-width:2" />
    <line x1="114" y1="672" x2="114" y2="683" style="stroke:#ff0000;stroke-width:2" />
    <line x1="125" y1="672" x2="125" y2="683" style="stroke:#ff0000;stroke-width:2" />
    <line x1="71" y1="672" x2="71" y2="683" style="stroke:#ff0000;stroke-width:2" />
    <line x1="60" y1="672" x2="60" y2="683" style="stroke:#ff0000;stroke-width:2" />
    <line x1="49" y1="672" x2="49" y2="683" style="stroke:#ff0000;stroke-width:2" />
    <line x1="39" y1="672" x2="39" y2="683" style="stroke:#ff0000;stroke-width:2" />
    <line x1="28" y1="726" x2="49" y2="726" style="stroke:#ff0000;stroke-width:2" />
    <line x1="28" y1="715" x2="39" y2="715" style="stroke:#ff0000;stroke-width:2" />
    <line x1="28" y1="704" x2="39" y2="704" style="stroke:#ff0000;stroke-width:2" />
    <line x1="28" y1="694" x2="39" y2="694" style="stroke:#ff0000;stroke-width:2" />
    <line x1="28" y1="683" x2="39" y2="683" style="stroke:#ff0000;stroke-width:2" />
    <line x1="28" y1="737" x2="39" y2="737" style="stroke:#ff0000;stroke-width:2" />
    <line x1="28" y1="747" x2="39" y2="747" style="stroke:#ff0000;stroke-width:2" />
    <line x1="28" y1="758" x2="39" y2="758" style="stroke:#ff0000;stroke-width:2" />
    <line x1="28" y1="769" x2="39" y2="769" style="stroke:#ff0000;stroke-width:2" />
	<path d = "M28 779 L28 672 L135 672 L243 672 L350 672 L457 672 L565 672 L672 672 L672 779 L565 779 L457 779 L350 779 L243 779 L135 779 L28 779 Z" stroke = "#000000" stroke-width = "1" fill = "none" /></svg>