<svg width="650" height="450" viewbox = "0 0 650 450"  xmlns="http://www.w3.org/2000/svg">
<!--<json>{
  "glyph": "0322,0221,0336,0336,0330,0332,0330,0332,0332,0332,0330,0336,0336,0325,01065,01056,01062,01065,01042,01040,01130,01040,01064,01042,",
  "x0": 625,
  "y0": 425,
  "unit": 400,
  "width": 650,
  "height": 450,
  "style": {
    "color0": "black",
    "fill0": "black",
    "line0": 1,
    "color1": "black",
    "fill1": "black",
    "line1": 5,
    "color2": "red",
    "fill2": "red",
    "line2": 2,
    "color3": "#FF7900",
    "fill3": "#FF7900",
    "line3": 2,
    "color4": "yellow",
    "fill4": "yellow",
    "line4": 2,
    "color5": "green",
    "fill5": "green",
    "line5": 2,
    "color6": "blue",
    "fill6": "blue",
    "line6": 2,
    "color7": "purple",
    "fill7": "purple",
    "line7": 2
  },
  "shapes": [
    "0220:0336,0336,0362,0203,0203,0203,0203,0334,0203,0203,0203,0203,0203,0336,0336,0203,0337,0337,0334,0203,0203,0203,0203,0334,0203,0203,0203,0203,0203,0336,0336,0203,0354,0334,0337,0337,0337,0337,",
    "0221:0336,0336,0336,0330,0362,0203,0203,0334,0203,0335,0203,0203,0335,0203,0334,0203,0203,0203,0334,0203,0203,0203,0203,0203,0203,0203,0203,0203,0336,0203,0334,0337,0203,0203,0203,0335,0203,0334,0203,0203,0334,0203,0335,0203,0203,0334,0203,0203,0335,0203,0334,0203,0203,0203,0203,0336,0203,0337,0334,0203,0335,0203,0203,0203,0354,0334,0331,0337,0337,0337,",
    "0222:0336,0336,0330,0330,0330,0330,0334,0336,0362,0203,0203,0203,0334,0203,0335,0203,0203,0203,0203,0336,0203,0335,0337,0203,0334,0203,0203,0203,0334,0203,0203,0203,0334,0203,0335,0203,0203,0335,0203,0334,0203,0203,0203,0334,0203,0203,0203,0334,0203,0335,0203,0203,0203,0203,0336,0203,0335,0337,0203,0334,0203,0203,0203,0334,0203,0203,0203,0334,0203,0335,0203,0203,0335,0203,0334,0203,0203,0203,0354,0337,0337,0337,0331,",
    "01220:0333,0336,0333,0337,0220,",
    "01221:0336,0333,0337,0333,0221,",
    "01222:0336,0333,0337,0333,0222,",
    "01225:0333,0200,0370,0336,0330,0332,0225,0371,",
    "01226:0333,0200,0370,0336,0330,0332,0226,0371,",
    "01227:0333,0200,0227,0320,",
    "01230:0333,0200,0230,",
    "01231:0333,0231,",
    "01232:0333,0232,",
    "01233:0333,0233,",
    "01234:0333,0234,",
    "01235:0333,0200,0336,0330,0332,0235,0331,0333,0337,",
    "01236:0333,0200,0336,0330,0332,0236,0331,0333,0337,",
    "01237:0333,0237,",
    "0240:0220,0336,0331,0333,0336,0321,0335,0342,0335,0335,0342,0335,0330,0330,0332,0332,0337,0337,",
    "01240:0333,0200,0336,0330,0332,0210,0240,0211,0333,0331,0337,",
    "0241:0220,0336,0321,0343,0332,0350,0335,0336,0342,0334,0334,0342,0335,0304,0337,0333,0337,",
    "01241:0333,0200,0336,0332,0330,0210,0241,0211,0333,0331,0337,",
    "0242:0220,0321,0336,0343,0333,0336,0350,0335,0342,0334,0334,0342,0335,0337,0304,0332,0337,",
    "01242:0333,0200,0336,0330,0332,0210,0242,0211,0333,0331,0337,",
    "0243:0220,0336,0331,0332,0336,0321,0343,0332,0350,0334,0336,0342,0335,0335,0342,0337,0334,0334,0335,0304,0332,0330,0330,0337,0337,0333,",
    "01243:0333,0200,0336,0330,0332,0210,0243,0211,0333,0331,0337,",
    "0244:0220,0336,0331,0333,0336,0321,0343,0333,0350,0336,0335,0342,0334,0334,0342,0335,0337,0304,0333,0330,0330,0337,0337,0332,",
    "01244:0333,0200,0336,0330,0332,0210,0244,0211,0333,0331,0337,",
    "0245:0210,0332,0332,0362,0335,0203,0203,0203,0203,0334,0203,0363,0332,0332,0331,0211,",
    "01245:0333,0200,0336,0330,0332,0336,0245,0337,0333,0331,0337,",
    "0246:0210,0332,0332,0335,0306,0336,0330,0335,0335,0335,0321,0362,0203,0335,0335,0203,0364,0331,0350,0335,0337,0366,0333,0333,0333,0333,0334,0334,0334,0334,0367,0335,0336,0342,0334,0334,0342,0330,0330,0330,0330,0335,0335,0335,0304,0337,0211,",
    "01246:0333,0200,0336,0330,0332,0336,0246,",
    "0247:0330,0332,0336,0332,0336,0221,0333,0333,0333,0222,0333,0333,0333,0223,0333,0333,0333,0225,0333,0331,0331,0331,0332,0332,0332,0332,0332,0332,0332,0332,0332,0332,0332,0332,0333,0333,0226,0331,0331,0331,0333,0333,0333,0333,0333,0333,0333,0333,0333,0333,0333,0333,0333,0330,0333,0330,0330,0333,0330,0331,0332,0332,0332,0332,0332,0332,0332,0332,0332,0332,0332,0332,0227,0333,0333,0333,0230,0333,0331,0331,0331,0331,0332,0332,0332,0330,0332,0332,0332,0332,0332,0332,0333,0333,0231,0333,0333,0333,0232,0331,0333,0330,0333,0333,0233,0333,0333,0333,0234,0330,0330,0332,0330,0332,0332,0337,0337,",
    "01247:0333,0200,0336,0330,0332,0220,0336,0247,0337,0331,0333,0337,"
  ]
}</json>-->	<path d = "M625 375 L625 325 L625 275 L575 275 L575 225 L575 175 L625 175 L625 125 L625 75 L625 25 L575 25 L525 25 L475 25 L425 25 L375 25 L325 25 L275 25 L225 25 L175 25 L150 25 L150 75 L150 125 L150 175 L100 175 L100 225 L100 275 L150 275 L150 325 L150 375 L200 375 L250 375 L250 425 L300 425 L350 425 L400 425 L450 425 L475 425 L475 375 L525 375 L575 375 L625 375 Z" stroke = "#ff0000" stroke-width = "2" fill = "none" />    <circle cx="228" cy = "122" r = "1.5625" stroke = "#008000" stroke-width = "2" fill = "#008000" />
    <circle cx="231" cy = "125" r = "1.5625" stroke = "#008000" stroke-width = "2" fill = "#008000" />
    <circle cx="234" cy = "125" r = "1.5625" stroke = "#008000" stroke-width = "2" fill = "#008000" />
    <circle cx="238" cy = "125" r = "1.5625" stroke = "#008000" stroke-width = "2" fill = "#008000" />
    <circle cx="241" cy = "122" r = "1.5625" stroke = "#008000" stroke-width = "2" fill = "#008000" />
    <circle cx="241" cy = "119" r = "1.5625" stroke = "#008000" stroke-width = "2" fill = "#008000" />
    <circle cx="241" cy = "116" r = "1.5625" stroke = "#008000" stroke-width = "2" fill = "#008000" />
    <circle cx="238" cy = "112" r = "1.5625" stroke = "#008000" stroke-width = "2" fill = "#008000" />
    <circle cx="234" cy = "112" r = "1.5625" stroke = "#008000" stroke-width = "2" fill = "#008000" />
    <circle cx="231" cy = "112" r = "1.5625" stroke = "#008000" stroke-width = "2" fill = "#008000" />
    <circle cx="228" cy = "112" r = "1.5625" stroke = "#008000" stroke-width = "2" fill = "#008000" />
    <circle cx="228" cy = "109" r = "1.5625" stroke = "#008000" stroke-width = "2" fill = "#008000" />
    <circle cx="228" cy = "106" r = "1.5625" stroke = "#008000" stroke-width = "2" fill = "#008000" />
    <circle cx="231" cy = "106" r = "1.5625" stroke = "#008000" stroke-width = "2" fill = "#008000" />
    <circle cx="234" cy = "106" r = "1.5625" stroke = "#008000" stroke-width = "2" fill = "#008000" />
    <circle cx="238" cy = "106" r = "1.5625" stroke = "#008000" stroke-width = "2" fill = "#008000" />
    <circle cx="241" cy = "106" r = "1.5625" stroke = "#008000" stroke-width = "2" fill = "#008000" />
    <circle cx="253" cy = "125" r = "1.5625" stroke = "#008000" stroke-width = "2" fill = "#008000" />
    <circle cx="253" cy = "122" r = "1.5625" stroke = "#008000" stroke-width = "2" fill = "#008000" />
    <circle cx="256" cy = "122" r = "1.5625" stroke = "#008000" stroke-width = "2" fill = "#008000" />
    <circle cx="256" cy = "125" r = "1.5625" stroke = "#008000" stroke-width = "2" fill = "#008000" />
    <circle cx="266" cy = "125" r = "1.5625" stroke = "#008000" stroke-width = "2" fill = "#008000" />
    <circle cx="269" cy = "125" r = "1.5625" stroke = "#008000" stroke-width = "2" fill = "#008000" />
    <circle cx="272" cy = "125" r = "1.5625" stroke = "#008000" stroke-width = "2" fill = "#008000" />
    <circle cx="275" cy = "125" r = "1.5625" stroke = "#008000" stroke-width = "2" fill = "#008000" />
    <circle cx="278" cy = "125" r = "1.5625" stroke = "#008000" stroke-width = "2" fill = "#008000" />
    <circle cx="275" cy = "125" r = "1.5625" stroke = "#008000" stroke-width = "2" fill = "#008000" />
    <circle cx="272" cy = "125" r = "1.5625" stroke = "#008000" stroke-width = "2" fill = "#008000" />
    <circle cx="269" cy = "125" r = "1.5625" stroke = "#008000" stroke-width = "2" fill = "#008000" />
    <circle cx="269" cy = "122" r = "1.5625" stroke = "#008000" stroke-width = "2" fill = "#008000" />
    <circle cx="272" cy = "119" r = "1.5625" stroke = "#008000" stroke-width = "2" fill = "#008000" />
    <circle cx="275" cy = "116" r = "1.5625" stroke = "#008000" stroke-width = "2" fill = "#008000" />
    <circle cx="278" cy = "112" r = "1.5625" stroke = "#008000" stroke-width = "2" fill = "#008000" />
    <circle cx="278" cy = "109" r = "1.5625" stroke = "#008000" stroke-width = "2" fill = "#008000" />
    <circle cx="275" cy = "106" r = "1.5625" stroke = "#008000" stroke-width = "2" fill = "#008000" />
    <circle cx="272" cy = "106" r = "1.5625" stroke = "#008000" stroke-width = "2" fill = "#008000" />
    <circle cx="269" cy = "106" r = "1.5625" stroke = "#008000" stroke-width = "2" fill = "#008000" />
    <circle cx="266" cy = "109" r = "1.5625" stroke = "#008000" stroke-width = "2" fill = "#008000" />
    <circle cx="284" cy = "122" r = "1.5625" stroke = "#008000" stroke-width = "2" fill = "#008000" />
    <circle cx="288" cy = "125" r = "1.5625" stroke = "#008000" stroke-width = "2" fill = "#008000" />
    <circle cx="291" cy = "125" r = "1.5625" stroke = "#008000" stroke-width = "2" fill = "#008000" />
    <circle cx="294" cy = "125" r = "1.5625" stroke = "#008000" stroke-width = "2" fill = "#008000" />
    <circle cx="297" cy = "122" r = "1.5625" stroke = "#008000" stroke-width = "2" fill = "#008000" />
    <circle cx="297" cy = "119" r = "1.5625" stroke = "#008000" stroke-width = "2" fill = "#008000" />
    <circle cx="297" cy = "116" r = "1.5625" stroke = "#008000" stroke-width = "2" fill = "#008000" />
    <circle cx="294" cy = "112" r = "1.5625" stroke = "#008000" stroke-width = "2" fill = "#008000" />
    <circle cx="291" cy = "112" r = "1.5625" stroke = "#008000" stroke-width = "2" fill = "#008000" />
    <circle cx="288" cy = "112" r = "1.5625" stroke = "#008000" stroke-width = "2" fill = "#008000" />
    <circle cx="284" cy = "112" r = "1.5625" stroke = "#008000" stroke-width = "2" fill = "#008000" />
    <circle cx="284" cy = "109" r = "1.5625" stroke = "#008000" stroke-width = "2" fill = "#008000" />
    <circle cx="284" cy = "106" r = "1.5625" stroke = "#008000" stroke-width = "2" fill = "#008000" />
    <circle cx="288" cy = "106" r = "1.5625" stroke = "#008000" stroke-width = "2" fill = "#008000" />
    <circle cx="291" cy = "106" r = "1.5625" stroke = "#008000" stroke-width = "2" fill = "#008000" />
    <circle cx="294" cy = "106" r = "1.5625" stroke = "#008000" stroke-width = "2" fill = "#008000" />
    <circle cx="297" cy = "106" r = "1.5625" stroke = "#008000" stroke-width = "2" fill = "#008000" />
    <circle cx="306" cy = "109" r = "1.5625" stroke = "#008000" stroke-width = "2" fill = "#008000" />
    <circle cx="306" cy = "106" r = "1.5625" stroke = "#008000" stroke-width = "2" fill = "#008000" />
    <circle cx="306" cy = "103" r = "1.5625" stroke = "#008000" stroke-width = "2" fill = "#008000" />
    <circle cx="313" cy = "103" r = "1.5625" stroke = "#008000" stroke-width = "2" fill = "#008000" />
    <circle cx="313" cy = "106" r = "1.5625" stroke = "#008000" stroke-width = "2" fill = "#008000" />
    <circle cx="313" cy = "109" r = "1.5625" stroke = "#008000" stroke-width = "2" fill = "#008000" />
    <circle cx="341" cy = "125" r = "1.5625" stroke = "#008000" stroke-width = "2" fill = "#008000" />
    <circle cx="341" cy = "122" r = "1.5625" stroke = "#008000" stroke-width = "2" fill = "#008000" />
    <circle cx="344" cy = "119" r = "1.5625" stroke = "#008000" stroke-width = "2" fill = "#008000" />
    <circle cx="347" cy = "116" r = "1.5625" stroke = "#008000" stroke-width = "2" fill = "#008000" />
    <circle cx="344" cy = "112" r = "1.5625" stroke = "#008000" stroke-width = "2" fill = "#008000" />
    <circle cx="341" cy = "109" r = "1.5625" stroke = "#008000" stroke-width = "2" fill = "#008000" />
    <circle cx="341" cy = "106" r = "1.5625" stroke = "#008000" stroke-width = "2" fill = "#008000" />
    <circle cx="350" cy = "112" r = "1.5625" stroke = "#008000" stroke-width = "2" fill = "#008000" />
    <circle cx="350" cy = "119" r = "1.5625" stroke = "#008000" stroke-width = "2" fill = "#008000" />
    <circle cx="353" cy = "122" r = "1.5625" stroke = "#008000" stroke-width = "2" fill = "#008000" />
    <circle cx="353" cy = "125" r = "1.5625" stroke = "#008000" stroke-width = "2" fill = "#008000" />
    <circle cx="353" cy = "109" r = "1.5625" stroke = "#008000" stroke-width = "2" fill = "#008000" />
    <circle cx="353" cy = "106" r = "1.5625" stroke = "#008000" stroke-width = "2" fill = "#008000" />
    <circle cx="378" cy = "119" r = "1.5625" stroke = "#008000" stroke-width = "2" fill = "#008000" />
    <circle cx="378" cy = "116" r = "1.5625" stroke = "#008000" stroke-width = "2" fill = "#008000" />
    <circle cx="381" cy = "112" r = "1.5625" stroke = "#008000" stroke-width = "2" fill = "#008000" />
    <circle cx="384" cy = "109" r = "1.5625" stroke = "#008000" stroke-width = "2" fill = "#008000" />
    <circle cx="388" cy = "106" r = "1.5625" stroke = "#008000" stroke-width = "2" fill = "#008000" />
    <circle cx="388" cy = "109" r = "1.5625" stroke = "#008000" stroke-width = "2" fill = "#008000" />
    <circle cx="388" cy = "112" r = "1.5625" stroke = "#008000" stroke-width = "2" fill = "#008000" />
    <circle cx="388" cy = "116" r = "1.5625" stroke = "#008000" stroke-width = "2" fill = "#008000" />
    <circle cx="388" cy = "119" r = "1.5625" stroke = "#008000" stroke-width = "2" fill = "#008000" />
    <circle cx="384" cy = "119" r = "1.5625" stroke = "#008000" stroke-width = "2" fill = "#008000" />
    <circle cx="381" cy = "119" r = "1.5625" stroke = "#008000" stroke-width = "2" fill = "#008000" />
    <circle cx="391" cy = "119" r = "1.5625" stroke = "#008000" stroke-width = "2" fill = "#008000" />
    <circle cx="388" cy = "122" r = "1.5625" stroke = "#008000" stroke-width = "2" fill = "#008000" />
    <circle cx="388" cy = "125" r = "1.5625" stroke = "#008000" stroke-width = "2" fill = "#008000" />
    <circle cx="400" cy = "109" r = "1.5625" stroke = "#008000" stroke-width = "2" fill = "#008000" />
    <circle cx="400" cy = "106" r = "1.5625" stroke = "#008000" stroke-width = "2" fill = "#008000" />
    <circle cx="400" cy = "103" r = "1.5625" stroke = "#008000" stroke-width = "2" fill = "#008000" />
    <circle cx="406" cy = "103" r = "1.5625" stroke = "#008000" stroke-width = "2" fill = "#008000" />
    <circle cx="406" cy = "106" r = "1.5625" stroke = "#008000" stroke-width = "2" fill = "#008000" />
    <circle cx="406" cy = "109" r = "1.5625" stroke = "#008000" stroke-width = "2" fill = "#008000" />
</svg>