<svg width="400" height="400" viewbox = "0 0 400 400"  xmlns="http://www.w3.org/2000/svg">
<!--<json>{
  "glyph": "0225,0222,",
  "x0": 200,
  "y0": 200,
  "unit": 370.0124972129086,
  "width": 400,
  "height": 400,
  "style": {
    "color0": "black",
    "fill0": "black",
    "line0": 1,
    "color1": "black",
    "fill1": "black",
    "line1": 5,
    "color2": "red",
    "fill2": "red",
    "line2": 2,
    "color3": "#FF7900",
    "fill3": "#FF7900",
    "line3": 2,
    "color4": "yellow",
    "fill4": "yellow",
    "line4": 2,
    "color5": "green",
    "fill5": "green",
    "line5": 2,
    "color6": "blue",
    "fill6": "blue",
    "line6": 2,
    "color7": "purple",
    "fill7": "white",
    "line7": 2
  },
  "shapes": [
    "0220:0327,0337,0337,0337,0337,0337,0347,0336,0336,0336,0336,0336,0321,",
    "0221:0326,0313,0204,0322,0336,0330,0350,0334,0304,0310,0337,0204,0326,0313,0336,0330,0350,0334,0310,0337,0304,0313,",
    "0222:0331,0333,0337,0221,0221,0221,0221,0221,0221,0221,0221,",
    "0230:0336,0336,0330,0336,0330,0336,0334,0362,0203,0335,0203,0203,0203,0334,0203,0335,0350,0310,0335,0337,0203,0203,0335,0335,0203,0203,0335,0335,0335,0336,0203,0334,0334,0203,0203,0203,0335,0335,0203,0363,0304,0335,0313,0337,0330,0337,0337,0331,0337,",
    "01220:0333,0200,0336,0330,0332,0336,0327,0347,0337,0331,0333,0337,0320,",
    "01221:0333,0200,0221,0337,0313,0304,",
    "01222:0333,0200,0222,0337,0313,0304,",
    "01223:0333,0200,0223,0337,0313,0304,",
    "01224:0333,0200,0224,0337,0313,0304,",
    "01225:0333,0225,0313,0304,",
    "01226:0226,0200,",
    "01227:0227,0200,",
    "01230:0333,0200,0336,0332,0330,0230,0331,0333,0337,",
    "01231:0333,0231,",
    "01232:0333,0232,",
    "01233:0333,0233,",
    "01234:0333,0234,",
    "01235:0333,0200,0336,0330,0332,0235,0331,0333,0337,",
    "01236:0333,0200,0336,0330,0332,0236,0331,0333,0337,",
    "01237:0333,0237,",
    "0240:0220,0336,0331,0333,0336,0321,0335,0342,0335,0335,0342,0335,0330,0330,0332,0332,0337,0337,",
    "01240:0333,0200,0336,0330,0332,0210,0240,0211,0333,0331,0337,",
    "0241:0220,0336,0321,0343,0332,0350,0335,0336,0342,0334,0334,0342,0335,0304,0337,0333,0337,",
    "01241:0333,0200,0336,0332,0330,0210,0241,0211,0333,0331,0337,",
    "0242:0220,0321,0336,0343,0333,0336,0350,0335,0342,0334,0334,0342,0335,0337,0304,0332,0337,",
    "01242:0333,0200,0336,0330,0332,0210,0242,0211,0333,0331,0337,",
    "0243:0220,0336,0331,0332,0336,0321,0343,0332,0350,0334,0336,0342,0335,0335,0342,0337,0334,0334,0335,0304,0332,0330,0330,0337,0337,0333,",
    "01243:0333,0200,0336,0330,0332,0210,0243,0211,0333,0331,0337,",
    "0244:0220,0336,0331,0333,0336,0321,0343,0333,0350,0336,0335,0342,0334,0334,0342,0335,0337,0304,0333,0330,0330,0337,0337,0332,",
    "01244:0333,0200,0336,0330,0332,0210,0244,0211,0333,0331,0337,",
    "0245:0210,0332,0332,0362,0335,0203,0203,0203,0203,0334,0203,0363,0332,0332,0331,0211,",
    "01245:0333,0200,0336,0330,0332,0336,0245,0337,0333,0331,0337,",
    "0246:0210,0332,0332,0335,0306,0336,0330,0335,0335,0335,0321,0362,0203,0335,0335,0203,0364,0331,0350,0335,0337,0366,0333,0333,0333,0333,0334,0334,0334,0334,0367,0335,0336,0342,0334,0334,0342,0330,0330,0330,0330,0335,0335,0335,0304,0337,0211,",
    "01246:0333,0200,0336,0330,0332,0336,0246,",
    "0247:0330,0332,0336,0332,0336,0221,0333,0333,0333,0222,0333,0333,0333,0223,0333,0333,0333,0225,0333,0331,0331,0331,0332,0332,0332,0332,0332,0332,0332,0332,0332,0332,0332,0332,0333,0333,0226,0331,0331,0331,0333,0333,0333,0333,0333,0333,0333,0333,0333,0333,0333,0333,0333,0330,0333,0330,0330,0333,0330,0331,0332,0332,0332,0332,0332,0332,0332,0332,0332,0332,0332,0332,0227,0333,0333,0333,0230,0333,0331,0331,0331,0331,0332,0332,0332,0330,0332,0332,0332,0332,0332,0332,0333,0333,0231,0333,0333,0333,0232,0331,0333,0330,0333,0333,0233,0333,0333,0333,0234,0330,0330,0332,0330,0332,0332,0337,0337,",
    "01247:0333,0200,0336,0330,0332,0220,0336,0247,0337,0331,0333,0337,"
  ]
}</json>-->	<path d = "M570 570 L570 -170 L-170 -170 L-170 570 L570 570 Z" stroke = "#0000ff" stroke-width = "2" fill = "#0000ff" />	<path d = "M570 200 L200 -170 L-170 200 L200 570 L570 200 Z" stroke = "#ff0000" stroke-width = "2" fill = "#ff0000" />	<path d = "M385 15 L15 15 L15 385 L385 385 L385 15 Z" stroke = "#0000ff" stroke-width = "2" fill = "#0000ff" />	<path d = "M200 15 L15 200 L200 385 L385 200 L200 15 Z" stroke = "#ff0000" stroke-width = "2" fill = "#ff0000" />	<path d = "M107 107 L107 293 L293 293 L293 107 L107 107 Z" stroke = "#0000ff" stroke-width = "2" fill = "#0000ff" />	<path d = "M107 200 L200 293 L293 200 L200 107 L107 200 Z" stroke = "#ff0000" stroke-width = "2" fill = "#ff0000" />	<path d = "M154 246 L246 246 L246 154 L154 154 L154 246 Z" stroke = "#0000ff" stroke-width = "2" fill = "#0000ff" />	<path d = "M200 246 L246 200 L200 154 L154 200 L200 246 Z" stroke = "#ff0000" stroke-width = "2" fill = "#ff0000" />	<path d = "M223 223 L223 177 L177 177 L177 223 L223 223 Z" stroke = "#0000ff" stroke-width = "2" fill = "#0000ff" />	<path d = "M223 200 L200 177 L177 200 L200 223 L223 200 Z" stroke = "#ff0000" stroke-width = "2" fill = "#ff0000" />	<path d = "M212 188 L188 188 L188 212 L212 212 L212 188 Z" stroke = "#0000ff" stroke-width = "2" fill = "#0000ff" />	<path d = "M200 188 L188 200 L200 212 L212 200 L200 188 Z" stroke = "#ff0000" stroke-width = "2" fill = "#ff0000" />	<path d = "M194 194 L194 206 L206 206 L206 194 L194 194 Z" stroke = "#0000ff" stroke-width = "2" fill = "#0000ff" />	<path d = "M194 200 L200 206 L206 200 L200 194 L194 200 Z" stroke = "#ff0000" stroke-width = "2" fill = "#ff0000" />	<path d = "M197 203 L203 203 L203 197 L197 197 L197 203 Z" stroke = "#0000ff" stroke-width = "2" fill = "#0000ff" />	<path d = "M200 203 L203 200 L200 197 L197 200 L200 203 Z" stroke = "#ff0000" stroke-width = "2" fill = "#ff0000" /></svg>