<svg width="400" height="400" viewbox = "0 0 400 400"  xmlns="http://www.w3.org/2000/svg">
<!--<json>{
  "glyph": "0331,0335,0331,0337,0221,0221,0221,0221,0221,0221,0221,0221,0221,0221,0221,",
  "x0": 200,
  "y0": 447.2460661529576,
  "unit": 407.0137469341995,
  "width": 400,
  "height": 400,
  "style": {
    "color0": "black",
    "fill0": "black",
    "line0": 1,
    "color1": "black",
    "fill1": "black",
    "line1": 5,
    "color2": "red",
    "fill2": "red",
    "line2": 2,
    "color3": "#FF7900",
    "fill3": "#FF7900",
    "line3": 2,
    "color4": "yellow",
    "fill4": "yellow",
    "line4": 2,
    "color5": "green",
    "fill5": "green",
    "line5": 2,
    "color6": "blue",
    "fill6": "blue",
    "line6": 2,
    "color7": "black",
    "fill7": "white",
    "line7": 1
  },
  "shapes": [
    "0220:0327,0337,0337,0337,0337,0337,0347,0336,0336,0336,0336,0336,0321,",
    "0221:0312,0337,0306,0350,0334,0334,0334,0336,0336,0362,0203,0335,0335,0335,0335,0203,0335,0335,0335,0335,0203,0363,0334,0335,0331,0334,0334,0334,0334,0362,0203,0334,0334,0334,0334,0203,0334,0334,0334,0334,0203,0363,0306,0334,0334,0334,0330,0362,0203,0334,0334,0203,0334,0334,0203,0363,0331,0335,0335,0362,0203,0335,0335,0203,0335,0335,0203,0363,0334,0331,0335,0335,0362,0203,0335,0335,0203,0335,0335,0203,0363,0334,0331,0334,0334,0334,0362,0203,0334,0334,0203,0334,0334,0203,0363,0331,0335,0335,",
    "0222:0221,0221,0221,0221,0221,0221,",
    "0230:0336,0336,0330,0336,0330,0336,0334,0362,0203,0335,0203,0203,0203,0334,0203,0335,0350,0310,0335,0337,0203,0203,0335,0335,0203,0203,0335,0335,0335,0336,0203,0334,0334,0203,0203,0203,0335,0335,0203,0363,0304,0335,0313,0337,0330,0337,0337,0331,0337,",
    "01220:0333,0200,0336,0330,0332,0336,0327,0347,0337,0331,0333,0337,0320,",
    "01221:0333,0200,0221,0337,0313,0304,",
    "01222:0333,0200,0222,0337,0313,0304,",
    "01223:0333,0200,0223,0337,0313,0304,",
    "01224:0333,0200,0224,0337,0313,0304,",
    "01225:0333,0225,0313,0304,",
    "01226:0226,0200,",
    "01227:0227,0200,",
    "01230:0333,0200,0336,0332,0330,0230,0331,0333,0337,",
    "01231:0333,0231,",
    "01232:0333,0232,",
    "01233:0333,0233,",
    "01234:0333,0234,",
    "01235:0333,0200,0336,0330,0332,0235,0331,0333,0337,",
    "01236:0333,0200,0336,0330,0332,0236,0331,0333,0337,",
    "01237:0333,0237,",
    "0240:0220,0336,0331,0333,0336,0321,0335,0342,0335,0335,0342,0335,0330,0330,0332,0332,0337,0337,",
    "01240:0333,0200,0336,0330,0332,0210,0240,0211,0333,0331,0337,",
    "0241:0220,0336,0321,0343,0332,0350,0335,0336,0342,0334,0334,0342,0335,0304,0337,0333,0337,",
    "01241:0333,0200,0336,0332,0330,0210,0241,0211,0333,0331,0337,",
    "0242:0220,0321,0336,0343,0333,0336,0350,0335,0342,0334,0334,0342,0335,0337,0304,0332,0337,",
    "01242:0333,0200,0336,0330,0332,0210,0242,0211,0333,0331,0337,",
    "0243:0220,0336,0331,0332,0336,0321,0343,0332,0350,0334,0336,0342,0335,0335,0342,0337,0334,0334,0335,0304,0332,0330,0330,0337,0337,0333,",
    "01243:0333,0200,0336,0330,0332,0210,0243,0211,0333,0331,0337,",
    "0244:0220,0336,0331,0333,0336,0321,0343,0333,0350,0336,0335,0342,0334,0334,0342,0335,0337,0304,0333,0330,0330,0337,0337,0332,",
    "01244:0333,0200,0336,0330,0332,0210,0244,0211,0333,0331,0337,",
    "0245:0210,0332,0332,0362,0335,0203,0203,0203,0203,0334,0203,0363,0332,0332,0331,0211,",
    "01245:0333,0200,0336,0330,0332,0336,0245,0337,0333,0331,0337,",
    "0246:0210,0332,0332,0335,0306,0336,0330,0335,0335,0335,0321,0362,0203,0335,0335,0203,0364,0331,0350,0335,0337,0366,0333,0333,0333,0333,0334,0334,0334,0334,0367,0335,0336,0342,0334,0334,0342,0330,0330,0330,0330,0335,0335,0335,0304,0337,0211,",
    "01246:0333,0200,0336,0330,0332,0336,0246,",
    "0247:0330,0332,0336,0332,0336,0221,0333,0333,0333,0222,0333,0333,0333,0223,0333,0333,0333,0225,0333,0331,0331,0331,0332,0332,0332,0332,0332,0332,0332,0332,0332,0332,0332,0332,0333,0333,0226,0331,0331,0331,0333,0333,0333,0333,0333,0333,0333,0333,0333,0333,0333,0333,0333,0330,0333,0330,0330,0333,0330,0331,0332,0332,0332,0332,0332,0332,0332,0332,0332,0332,0332,0332,0227,0333,0333,0333,0230,0333,0331,0331,0331,0331,0332,0332,0332,0330,0332,0332,0332,0332,0332,0332,0333,0333,0231,0333,0333,0333,0232,0331,0333,0330,0333,0333,0233,0333,0333,0333,0234,0330,0330,0332,0330,0332,0332,0337,0337,",
    "01247:0333,0200,0336,0330,0332,0220,0336,0247,0337,0331,0333,0337,"
  ]
}</json>-->	<path d = "M-207 854 L-207 384 L200 619 L-207 854 Z" stroke = "#000000" stroke-width = "1" fill = "#000000" />	<path d = "M200 619 L607 854 L607 384 L200 619 Z" stroke = "#000000" stroke-width = "1" fill = "#000000" />	<path d = "M607 384 L1014 149 L607 -86 L607 384 Z" stroke = "#000000" stroke-width = "1" fill = "#000000" />	<path d = "M607 -86 L200 -321 L607 -556 L607 -86 Z" stroke = "#000000" stroke-width = "1" fill = "#000000" />	<path d = "M200 -321 L-207 -86 L-207 -556 L200 -321 Z" stroke = "#000000" stroke-width = "1" fill = "#000000" />	<path d = "M-207 -86 L-614 149 L-207 384 L-207 -86 Z" stroke = "#000000" stroke-width = "1" fill = "#000000" />	<path d = "M-207 384 L-71 149 L64 384 L-207 384 Z" stroke = "#000000" stroke-width = "1" fill = "#000000" />	<path d = "M64 384 L200 619 L336 384 L64 384 Z" stroke = "#000000" stroke-width = "1" fill = "#000000" />	<path d = "M336 384 L607 384 L471 149 L336 384 Z" stroke = "#000000" stroke-width = "1" fill = "#000000" />	<path d = "M471 149 L336 -86 L607 -86 L471 149 Z" stroke = "#000000" stroke-width = "1" fill = "#000000" />	<path d = "M336 -86 L64 -86 L200 -321 L336 -86 Z" stroke = "#000000" stroke-width = "1" fill = "#000000" />	<path d = "M64 -86 L-207 -86 L-71 149 L64 -86 Z" stroke = "#000000" stroke-width = "1" fill = "#000000" />	<path d = "M-71 149 L64 71 L64 228 L-71 149 Z" stroke = "#000000" stroke-width = "1" fill = "#000000" />	<path d = "M64 228 L64 384 L200 306 L64 228 Z" stroke = "#000000" stroke-width = "1" fill = "#000000" />	<path d = "M200 306 L336 384 L336 228 L200 306 Z" stroke = "#000000" stroke-width = "1" fill = "#000000" />	<path d = "M336 228 L336 71 L471 149 L336 228 Z" stroke = "#000000" stroke-width = "1" fill = "#000000" />	<path d = "M336 71 L200 -7 L336 -86 L336 71 Z" stroke = "#000000" stroke-width = "1" fill = "#000000" />	<path d = "M200 -7 L64 -86 L64 71 L200 -7 Z" stroke = "#000000" stroke-width = "1" fill = "#000000" />	<path d = "M64 71 L155 71 L110 149 L64 71 Z" stroke = "#000000" stroke-width = "1" fill = "#000000" />	<path d = "M110 149 L64 228 L155 228 L110 149 Z" stroke = "#000000" stroke-width = "1" fill = "#000000" />	<path d = "M155 228 L200 306 L245 228 L155 228 Z" stroke = "#000000" stroke-width = "1" fill = "#000000" />	<path d = "M245 228 L290 149 L336 228 L245 228 Z" stroke = "#000000" stroke-width = "1" fill = "#000000" />	<path d = "M290 149 L245 71 L336 71 L290 149 Z" stroke = "#000000" stroke-width = "1" fill = "#000000" />	<path d = "M245 71 L200 -7 L155 71 L245 71 Z" stroke = "#000000" stroke-width = "1" fill = "#000000" />	<path d = "M155 71 L200 97 L155 123 L155 71 Z" stroke = "#000000" stroke-width = "1" fill = "#000000" />	<path d = "M155 123 L110 149 L155 175 L155 123 Z" stroke = "#000000" stroke-width = "1" fill = "#000000" />	<path d = "M155 175 L155 228 L200 202 L155 175 Z" stroke = "#000000" stroke-width = "1" fill = "#000000" />	<path d = "M200 202 L245 175 L245 228 L200 202 Z" stroke = "#000000" stroke-width = "1" fill = "#000000" />	<path d = "M245 175 L245 123 L290 149 L245 175 Z" stroke = "#000000" stroke-width = "1" fill = "#000000" />	<path d = "M245 123 L245 71 L200 97 L245 123 Z" stroke = "#000000" stroke-width = "1" fill = "#000000" />	<path d = "M200 97 L215 123 L185 123 L200 97 Z" stroke = "#000000" stroke-width = "1" fill = "#000000" />	<path d = "M185 123 L155 123 L170 149 L185 123 Z" stroke = "#000000" stroke-width = "1" fill = "#000000" />	<path d = "M170 149 L155 175 L185 175 L170 149 Z" stroke = "#000000" stroke-width = "1" fill = "#000000" />	<path d = "M185 175 L215 175 L200 202 L185 175 Z" stroke = "#000000" stroke-width = "1" fill = "#000000" />	<path d = "M215 175 L230 149 L245 175 L215 175 Z" stroke = "#000000" stroke-width = "1" fill = "#000000" />	<path d = "M230 149 L245 123 L215 123 L230 149 Z" stroke = "#000000" stroke-width = "1" fill = "#000000" />	<path d = "M215 123 L215 141 L200 132 L215 123 Z" stroke = "#000000" stroke-width = "1" fill = "#000000" />	<path d = "M200 132 L185 123 L185 141 L200 132 Z" stroke = "#000000" stroke-width = "1" fill = "#000000" />	<path d = "M185 141 L170 149 L185 158 L185 141 Z" stroke = "#000000" stroke-width = "1" fill = "#000000" />	<path d = "M185 158 L200 167 L185 175 L185 158 Z" stroke = "#000000" stroke-width = "1" fill = "#000000" />	<path d = "M200 167 L215 158 L215 175 L200 167 Z" stroke = "#000000" stroke-width = "1" fill = "#000000" />	<path d = "M215 158 L230 149 L215 141 L215 158 Z" stroke = "#000000" stroke-width = "1" fill = "#000000" />	<path d = "M215 141 L210 149 L205 141 L215 141 Z" stroke = "#000000" stroke-width = "1" fill = "#000000" />	<path d = "M205 141 L200 132 L195 141 L205 141 Z" stroke = "#000000" stroke-width = "1" fill = "#000000" />	<path d = "M195 141 L185 141 L190 149 L195 141 Z" stroke = "#000000" stroke-width = "1" fill = "#000000" />	<path d = "M190 149 L195 158 L185 158 L190 149 Z" stroke = "#000000" stroke-width = "1" fill = "#000000" />	<path d = "M195 158 L205 158 L200 167 L195 158 Z" stroke = "#000000" stroke-width = "1" fill = "#000000" />	<path d = "M205 158 L215 158 L210 149 L205 158 Z" stroke = "#000000" stroke-width = "1" fill = "#000000" />	<path d = "M210 149 L205 152 L205 146 L210 149 Z" stroke = "#000000" stroke-width = "1" fill = "#000000" />	<path d = "M205 146 L205 141 L200 143 L205 146 Z" stroke = "#000000" stroke-width = "1" fill = "#000000" />	<path d = "M200 143 L195 141 L195 146 L200 143 Z" stroke = "#000000" stroke-width = "1" fill = "#000000" />	<path d = "M195 146 L195 152 L190 149 L195 146 Z" stroke = "#000000" stroke-width = "1" fill = "#000000" />	<path d = "M195 152 L200 155 L195 158 L195 152 Z" stroke = "#000000" stroke-width = "1" fill = "#000000" />	<path d = "M200 155 L205 158 L205 152 L200 155 Z" stroke = "#000000" stroke-width = "1" fill = "#000000" />	<path d = "M205 152 L202 152 L203 149 L205 152 Z" stroke = "#000000" stroke-width = "1" fill = "#000000" />	<path d = "M203 149 L205 146 L202 146 L203 149 Z" stroke = "#000000" stroke-width = "1" fill = "#000000" />	<path d = "M202 146 L200 143 L198 146 L202 146 Z" stroke = "#000000" stroke-width = "1" fill = "#000000" />	<path d = "M198 146 L197 149 L195 146 L198 146 Z" stroke = "#000000" stroke-width = "1" fill = "#000000" />	<path d = "M197 149 L198 152 L195 152 L197 149 Z" stroke = "#000000" stroke-width = "1" fill = "#000000" />	<path d = "M198 152 L200 155 L202 152 L198 152 Z" stroke = "#000000" stroke-width = "1" fill = "#000000" />	<path d = "M202 152 L200 151 L202 150 L202 152 Z" stroke = "#000000" stroke-width = "1" fill = "#000000" />	<path d = "M202 150 L203 149 L202 148 L202 150 Z" stroke = "#000000" stroke-width = "1" fill = "#000000" />	<path d = "M202 148 L202 146 L200 147 L202 148 Z" stroke = "#000000" stroke-width = "1" fill = "#000000" />	<path d = "M200 147 L198 148 L198 146 L200 147 Z" stroke = "#000000" stroke-width = "1" fill = "#000000" />	<path d = "M198 148 L198 150 L197 149 L198 148 Z" stroke = "#000000" stroke-width = "1" fill = "#000000" />	<path d = "M198 150 L198 152 L200 151 L198 150 Z" stroke = "#000000" stroke-width = "1" fill = "#000000" /></svg>