<svg width="400" height="400" viewbox = "0 0 400 400"  xmlns="http://www.w3.org/2000/svg">
<!--<json>{
  "glyph": "0330,0306,0335,0335,0350,0335,0312,0337,0330,0334,0334,0334,0334,0334,0334,0306,0313,0221,0221,0221,0221,0221,0221,0221,0221,0221,0221,0221,0221,0221,0221,0221,0221,0331,",
  "x0": 200,
  "y0": 169.47449999999998,
  "unit": 655.499709574998,
  "width": 400,
  "height": 400,
  "style": {
    "color0": "black",
    "fill0": "black",
    "line0": 1,
    "color1": "black",
    "fill1": "black",
    "line1": 5,
    "color2": "red",
    "fill2": "red",
    "line2": 2,
    "color3": "#FF7900",
    "fill3": "#FF7900",
    "line3": 2,
    "color4": "yellow",
    "fill4": "yellow",
    "line4": 2,
    "color5": "green",
    "fill5": "green",
    "line5": 2,
    "color6": "blue",
    "fill6": "blue",
    "line6": 2,
    "color7": "black",
    "fill7": "white",
    "line7": 1
  },
  "shapes": [
    "0220:0327,0337,0337,0337,0337,0337,0347,0336,0336,0336,0336,0336,0321,",
    "0221:0306,0201,0334,0334,0201,0334,0334,0201,0334,0334,0336,0330,0334,0336,0362,0203,0334,0334,0203,0334,0334,0203,0363,0334,0334,0330,0362,0203,0334,0334,0203,0334,0334,0203,0363,0331,0335,0362,0203,0335,0335,0203,0335,0335,0203,0363,0334,0331,0335,",
    "0222:0221,0221,0221,",
    "0230:0336,0336,0330,0336,0330,0336,0334,0362,0203,0335,0203,0203,0203,0334,0203,0335,0350,0310,0335,0337,0203,0203,0335,0335,0203,0203,0335,0335,0335,0336,0203,0334,0334,0203,0203,0203,0335,0335,0203,0363,0304,0335,0313,0337,0330,0337,0337,0331,0337,",
    "01220:0333,0200,0336,0330,0332,0336,0327,0347,0337,0331,0333,0337,0320,",
    "01221:0333,0200,0221,0337,0313,0304,",
    "01222:0333,0200,0222,0337,0313,0304,",
    "01223:0333,0200,0223,0337,0313,0304,",
    "01224:0333,0200,0224,0337,0313,0304,",
    "01225:0333,0225,0313,0304,",
    "01226:0226,0200,",
    "01227:0227,0200,",
    "01230:0333,0200,0336,0332,0330,0230,0331,0333,0337,",
    "01231:0333,0231,",
    "01232:0333,0232,",
    "01233:0333,0233,",
    "01234:0333,0234,",
    "01235:0333,0200,0336,0330,0332,0235,0331,0333,0337,",
    "01236:0333,0200,0336,0330,0332,0236,0331,0333,0337,",
    "01237:0333,0237,",
    "0240:0220,0336,0331,0333,0336,0321,0335,0342,0335,0335,0342,0335,0330,0330,0332,0332,0337,0337,",
    "01240:0333,0200,0336,0330,0332,0210,0240,0211,0333,0331,0337,",
    "0241:0220,0336,0321,0343,0332,0350,0335,0336,0342,0334,0334,0342,0335,0304,0337,0333,0337,",
    "01241:0333,0200,0336,0332,0330,0210,0241,0211,0333,0331,0337,",
    "0242:0220,0321,0336,0343,0333,0336,0350,0335,0342,0334,0334,0342,0335,0337,0304,0332,0337,",
    "01242:0333,0200,0336,0330,0332,0210,0242,0211,0333,0331,0337,",
    "0243:0220,0336,0331,0332,0336,0321,0343,0332,0350,0334,0336,0342,0335,0335,0342,0337,0334,0334,0335,0304,0332,0330,0330,0337,0337,0333,",
    "01243:0333,0200,0336,0330,0332,0210,0243,0211,0333,0331,0337,",
    "0244:0220,0336,0331,0333,0336,0321,0343,0333,0350,0336,0335,0342,0334,0334,0342,0335,0337,0304,0333,0330,0330,0337,0337,0332,",
    "01244:0333,0200,0336,0330,0332,0210,0244,0211,0333,0331,0337,",
    "0245:0210,0332,0332,0362,0335,0203,0203,0203,0203,0334,0203,0363,0332,0332,0331,0211,",
    "01245:0333,0200,0336,0330,0332,0336,0245,0337,0333,0331,0337,",
    "0246:0210,0332,0332,0335,0306,0336,0330,0335,0335,0335,0321,0362,0203,0335,0335,0203,0364,0331,0350,0335,0337,0366,0333,0333,0333,0333,0334,0334,0334,0334,0367,0335,0336,0342,0334,0334,0342,0330,0330,0330,0330,0335,0335,0335,0304,0337,0211,",
    "01246:0333,0200,0336,0330,0332,0336,0246,",
    "0247:0330,0332,0336,0332,0336,0221,0333,0333,0333,0222,0333,0333,0333,0223,0333,0333,0333,0225,0333,0331,0331,0331,0332,0332,0332,0332,0332,0332,0332,0332,0332,0332,0332,0332,0333,0333,0226,0331,0331,0331,0333,0333,0333,0333,0333,0333,0333,0333,0333,0333,0333,0333,0333,0330,0333,0330,0330,0333,0330,0331,0332,0332,0332,0332,0332,0332,0332,0332,0332,0332,0332,0332,0227,0333,0333,0333,0230,0333,0331,0331,0331,0331,0332,0332,0332,0330,0332,0332,0332,0332,0332,0332,0333,0333,0231,0333,0333,0333,0232,0331,0333,0330,0333,0333,0233,0333,0333,0333,0234,0330,0330,0332,0330,0332,0332,0337,0337,",
    "01247:0333,0200,0336,0330,0332,0220,0336,0247,0337,0331,0333,0337,"
  ]
}</json>-->    <line x1="768" y1="497" x2="200" y2="-486" style="stroke:#000000;stroke-width:1" />
    <line x1="200" y1="-486" x2="-368" y2="497" style="stroke:#000000;stroke-width:1" />
    <line x1="-368" y1="497" x2="768" y2="497" style="stroke:#000000;stroke-width:1" />
	<path d = "M484 6 L200 6 L342 251 L484 6 Z" stroke = "#000000" stroke-width = "1" fill = "#000000" />	<path d = "M200 6 L-84 6 L58 251 L200 6 Z" stroke = "#000000" stroke-width = "1" fill = "#000000" />	<path d = "M58 251 L342 251 L200 497 L58 251 Z" stroke = "#000000" stroke-width = "1" fill = "#000000" />    <line x1="342" y1="251" x2="200" y2="6" style="stroke:#000000;stroke-width:1" />
    <line x1="200" y1="6" x2="58" y2="251" style="stroke:#000000;stroke-width:1" />
    <line x1="58" y1="251" x2="342" y2="251" style="stroke:#000000;stroke-width:1" />
	<path d = "M271 129 L200 129 L235 190 L271 129 Z" stroke = "#000000" stroke-width = "1" fill = "#000000" />	<path d = "M200 129 L129 129 L165 190 L200 129 Z" stroke = "#000000" stroke-width = "1" fill = "#000000" />	<path d = "M165 190 L235 190 L200 251 L165 190 Z" stroke = "#000000" stroke-width = "1" fill = "#000000" />    <line x1="235" y1="190" x2="200" y2="129" style="stroke:#000000;stroke-width:1" />
    <line x1="200" y1="129" x2="165" y2="190" style="stroke:#000000;stroke-width:1" />
    <line x1="165" y1="190" x2="235" y2="190" style="stroke:#000000;stroke-width:1" />
	<path d = "M218 159 L200 159 L209 175 L218 159 Z" stroke = "#000000" stroke-width = "1" fill = "#000000" />	<path d = "M200 159 L182 159 L191 175 L200 159 Z" stroke = "#000000" stroke-width = "1" fill = "#000000" />	<path d = "M191 175 L209 175 L200 190 L191 175 Z" stroke = "#000000" stroke-width = "1" fill = "#000000" />    <line x1="209" y1="175" x2="200" y2="159" style="stroke:#000000;stroke-width:1" />
    <line x1="200" y1="159" x2="191" y2="175" style="stroke:#000000;stroke-width:1" />
    <line x1="191" y1="175" x2="209" y2="175" style="stroke:#000000;stroke-width:1" />
	<path d = "M204 167 L200 167 L202 171 L204 167 Z" stroke = "#000000" stroke-width = "1" fill = "#000000" />	<path d = "M200 167 L196 167 L198 171 L200 167 Z" stroke = "#000000" stroke-width = "1" fill = "#000000" />	<path d = "M198 171 L202 171 L200 175 L198 171 Z" stroke = "#000000" stroke-width = "1" fill = "#000000" />    <line x1="202" y1="171" x2="200" y2="167" style="stroke:#000000;stroke-width:1" />
    <line x1="200" y1="167" x2="198" y2="171" style="stroke:#000000;stroke-width:1" />
    <line x1="198" y1="171" x2="202" y2="171" style="stroke:#000000;stroke-width:1" />
	<path d = "M201 169 L200 169 L201 170 L201 169 Z" stroke = "#000000" stroke-width = "1" fill = "#000000" />	<path d = "M200 169 L199 169 L199 170 L200 169 Z" stroke = "#000000" stroke-width = "1" fill = "#000000" />	<path d = "M199 170 L201 170 L200 171 L199 170 Z" stroke = "#000000" stroke-width = "1" fill = "#000000" />    <line x1="201" y1="170" x2="200" y2="169" style="stroke:#000000;stroke-width:1" />
    <line x1="200" y1="169" x2="199" y2="170" style="stroke:#000000;stroke-width:1" />
    <line x1="199" y1="170" x2="201" y2="170" style="stroke:#000000;stroke-width:1" />
	<path d = "M200 169 L200 169 L200 170 L200 169 Z" stroke = "#000000" stroke-width = "1" fill = "#000000" />	<path d = "M200 169 L200 169 L200 170 L200 169 Z" stroke = "#000000" stroke-width = "1" fill = "#000000" />	<path d = "M200 170 L200 170 L200 170 L200 170 Z" stroke = "#000000" stroke-width = "1" fill = "#000000" />    <line x1="200" y1="170" x2="200" y2="169" style="stroke:#000000;stroke-width:1" />
    <line x1="200" y1="169" x2="200" y2="170" style="stroke:#000000;stroke-width:1" />
    <line x1="200" y1="170" x2="200" y2="170" style="stroke:#000000;stroke-width:1" />
	<path d = "M200 169 L200 169 L200 169 L200 169 Z" stroke = "#000000" stroke-width = "1" fill = "#000000" />	<path d = "M200 169 L200 169 L200 169 L200 169 Z" stroke = "#000000" stroke-width = "1" fill = "#000000" />	<path d = "M200 169 L200 169 L200 170 L200 169 Z" stroke = "#000000" stroke-width = "1" fill = "#000000" />    <line x1="200" y1="169" x2="200" y2="169" style="stroke:#000000;stroke-width:1" />
    <line x1="200" y1="169" x2="200" y2="169" style="stroke:#000000;stroke-width:1" />
    <line x1="200" y1="169" x2="200" y2="169" style="stroke:#000000;stroke-width:1" />
	<path d = "M200 169 L200 169 L200 169 L200 169 Z" stroke = "#000000" stroke-width = "1" fill = "#000000" />	<path d = "M200 169 L200 169 L200 169 L200 169 Z" stroke = "#000000" stroke-width = "1" fill = "#000000" />	<path d = "M200 169 L200 169 L200 169 L200 169 Z" stroke = "#000000" stroke-width = "1" fill = "#000000" />    <line x1="200" y1="169" x2="200" y2="169" style="stroke:#000000;stroke-width:1" />
    <line x1="200" y1="169" x2="200" y2="169" style="stroke:#000000;stroke-width:1" />
    <line x1="200" y1="169" x2="200" y2="169" style="stroke:#000000;stroke-width:1" />
	<path d = "M200 169 L200 169 L200 169 L200 169 Z" stroke = "#000000" stroke-width = "1" fill = "#000000" />	<path d = "M200 169 L200 169 L200 169 L200 169 Z" stroke = "#000000" stroke-width = "1" fill = "#000000" />	<path d = "M200 169 L200 169 L200 169 L200 169 Z" stroke = "#000000" stroke-width = "1" fill = "#000000" />    <line x1="200" y1="169" x2="200" y2="169" style="stroke:#000000;stroke-width:1" />
    <line x1="200" y1="169" x2="200" y2="169" style="stroke:#000000;stroke-width:1" />
    <line x1="200" y1="169" x2="200" y2="169" style="stroke:#000000;stroke-width:1" />
	<path d = "M200 169 L200 169 L200 169 L200 169 Z" stroke = "#000000" stroke-width = "1" fill = "#000000" />	<path d = "M200 169 L200 169 L200 169 L200 169 Z" stroke = "#000000" stroke-width = "1" fill = "#000000" />	<path d = "M200 169 L200 169 L200 169 L200 169 Z" stroke = "#000000" stroke-width = "1" fill = "#000000" />    <line x1="200" y1="169" x2="200" y2="169" style="stroke:#000000;stroke-width:1" />
    <line x1="200" y1="169" x2="200" y2="169" style="stroke:#000000;stroke-width:1" />
    <line x1="200" y1="169" x2="200" y2="169" style="stroke:#000000;stroke-width:1" />
	<path d = "M200 169 L200 169 L200 169 L200 169 Z" stroke = "#000000" stroke-width = "1" fill = "#000000" />	<path d = "M200 169 L200 169 L200 169 L200 169 Z" stroke = "#000000" stroke-width = "1" fill = "#000000" />	<path d = "M200 169 L200 169 L200 169 L200 169 Z" stroke = "#000000" stroke-width = "1" fill = "#000000" />    <line x1="200" y1="169" x2="200" y2="169" style="stroke:#000000;stroke-width:1" />
    <line x1="200" y1="169" x2="200" y2="169" style="stroke:#000000;stroke-width:1" />
    <line x1="200" y1="169" x2="200" y2="169" style="stroke:#000000;stroke-width:1" />
	<path d = "M200 169 L200 169 L200 169 L200 169 Z" stroke = "#000000" stroke-width = "1" fill = "#000000" />	<path d = "M200 169 L200 169 L200 169 L200 169 Z" stroke = "#000000" stroke-width = "1" fill = "#000000" />	<path d = "M200 169 L200 169 L200 169 L200 169 Z" stroke = "#000000" stroke-width = "1" fill = "#000000" />    <line x1="200" y1="169" x2="200" y2="169" style="stroke:#000000;stroke-width:1" />
    <line x1="200" y1="169" x2="200" y2="169" style="stroke:#000000;stroke-width:1" />
    <line x1="200" y1="169" x2="200" y2="169" style="stroke:#000000;stroke-width:1" />
	<path d = "M200 169 L200 169 L200 169 L200 169 Z" stroke = "#000000" stroke-width = "1" fill = "#000000" />	<path d = "M200 169 L200 169 L200 169 L200 169 Z" stroke = "#000000" stroke-width = "1" fill = "#000000" />	<path d = "M200 169 L200 169 L200 169 L200 169 Z" stroke = "#000000" stroke-width = "1" fill = "#000000" />    <line x1="200" y1="169" x2="200" y2="169" style="stroke:#000000;stroke-width:1" />
    <line x1="200" y1="169" x2="200" y2="169" style="stroke:#000000;stroke-width:1" />
    <line x1="200" y1="169" x2="200" y2="169" style="stroke:#000000;stroke-width:1" />
	<path d = "M200 169 L200 169 L200 169 L200 169 Z" stroke = "#000000" stroke-width = "1" fill = "#000000" />	<path d = "M200 169 L200 169 L200 169 L200 169 Z" stroke = "#000000" stroke-width = "1" fill = "#000000" />	<path d = "M200 169 L200 169 L200 169 L200 169 Z" stroke = "#000000" stroke-width = "1" fill = "#000000" />    <line x1="200" y1="169" x2="200" y2="169" style="stroke:#000000;stroke-width:1" />
    <line x1="200" y1="169" x2="200" y2="169" style="stroke:#000000;stroke-width:1" />
    <line x1="200" y1="169" x2="200" y2="169" style="stroke:#000000;stroke-width:1" />
	<path d = "M200 169 L200 169 L200 169 L200 169 Z" stroke = "#000000" stroke-width = "1" fill = "#000000" />	<path d = "M200 169 L200 169 L200 169 L200 169 Z" stroke = "#000000" stroke-width = "1" fill = "#000000" />	<path d = "M200 169 L200 169 L200 169 L200 169 Z" stroke = "#000000" stroke-width = "1" fill = "#000000" />    <line x1="200" y1="169" x2="200" y2="169" style="stroke:#000000;stroke-width:1" />
    <line x1="200" y1="169" x2="200" y2="169" style="stroke:#000000;stroke-width:1" />
    <line x1="200" y1="169" x2="200" y2="169" style="stroke:#000000;stroke-width:1" />
	<path d = "M200 169 L200 169 L200 169 L200 169 Z" stroke = "#000000" stroke-width = "1" fill = "#000000" />	<path d = "M200 169 L200 169 L200 169 L200 169 Z" stroke = "#000000" stroke-width = "1" fill = "#000000" />	<path d = "M200 169 L200 169 L200 169 L200 169 Z" stroke = "#000000" stroke-width = "1" fill = "#000000" /></svg>