<svg width="620" height="420" viewbox = "0 0 620 420"  xmlns="http://www.w3.org/2000/svg">
<!--<json>{
  "glyph": "0331,0336,0333,0337,0337,0333,0200,0336,0332,0337,0342,0336,0333,0330,0334,0337,0342,0335,0336,0331,0332,0336,0333,0337,0337,0342,0336,0332,0337,0342,0336,0333,0336,0336,0333,0337,0337,0337,0342,0332,0336,0333,0337,0342,0336,0333,0336,0336,0332,0332,0337,0337,0337,0342,0336,0332,0337,0342,0336,0336,0330,0332,0335,0336,0330,0337,0337,0337,0342,0336,0332,0337,0342,0336,0336,0332,0336,0333,0337,0337,0337,0342,0336,0333,0337,0342,0336,0336,0332,0337,0337,0342,0336,0336,0333,0333,0337,0337,0342,0326,0334,0336,0336,0336,0331,0201,0201,0201,0335,0201,0334,0201,0201,0334,0201,0335,0201,0201,0201,0335,0201,0201,0201,0335,0201,0334,0201,0201,0334,0201,0335,0201,0201,0201,0335,0201,0201,0201,0335,0201,0334,0201,0201,0334,0201,0335,0201,0201,0201,0335,0201,0201,0201,0335,0201,0334,0201,0201,0334,0201,0335,0201,0201,0201,0322,0335,0330,0335,0330,0201,0201,0335,0201,0334,0201,0201,0334,0201,0335,0201,0201,0201,0334,0201,0201,0334,0201,0335,0201,0201,0335,0201,0334,0201,0201,0201,0334,0201,0201,0201,0201,0201,0201,0201,0334,0201,0201,0201,0335,0201,0334,0201,0201,0334,0201,0335,0201,0201,0334,0334,0320,0204,0333,0333,0204,0333,0333,0204,0333,0333,0204,0331,0333,0204,0332,0332,0204,0332,0332,0204,0332,0332,0204,0330,0330,0204,0333,0333,0204,0333,0333,0204,0333,0333,0204,0330,0332,0204,0332,0332,0204,0332,0332,0204,0332,0332,0204,0330,0333,0204,0333,0333,0204,0333,0333,0204,0333,0333,0204,0330,0332,0204,0332,0332,0204,0332,0332,0204,0332,0332,0204,0330,0333,0204,0333,0333,0204,0333,0333,0204,0333,0333,0204,0330,0332,0204,0332,0332,0204,0332,0332,0204,0332,0332,0204,",
  "x0": 10,
  "y0": 210,
  "unit": 200,
  "width": 620,
  "height": 420,
  "style": {
    "color0": "black",
    "fill0": "black",
    "line0": 1,
    "color1": "black",
    "fill1": "black",
    "line1": 5,
    "color2": "red",
    "fill2": "red",
    "line2": 2,
    "color3": "#FF7900",
    "fill3": "#FF7900",
    "line3": 2,
    "color4": "yellow",
    "fill4": "yellow",
    "line4": 2,
    "color5": "green",
    "fill5": "green",
    "line5": 2,
    "color6": "blue",
    "fill6": "blue",
    "line6": 2,
    "color7": "purple",
    "fill7": "purple",
    "line7": 2
  },
  "shapes": [
    "0220:0304,0313,0320,0200,0322,0336,0332,0337,0342,0336,0330,0333,0334,0337,0342,0336,0335,0331,0336,0332,0337,0342,0336,0333,0330,0334,0337,0342,0335,0336,0331,0336,0332,0337,0342,0336,0333,0330,0334,0337,0342,0335,0336,0331,0336,0332,0337,0342,0336,0333,0330,0334,0337,0342,0335,0336,0331,0337,0337,0337,0337,",
    "0221:0304,0320,0362,0203,0334,0350,0334,0310,0337,0203,0334,0334,0334,0336,0203,0354,0334,0334,0334,0336,0322,0201,0335,0335,0335,0336,0201,0334,0334,0334,0336,0201,0335,0335,0335,0336,0201,0334,0334,0334,0336,0201,0335,0335,0335,0336,0201,0334,0334,0334,0336,0201,0335,0335,0335,0336,0201,0334,0334,0330,0337,0337,0337,0337,0337,0337,0337,0337,0331,0313,0304,0320,",
    "0222:0306,0320,0362,0203,0334,0334,0203,0334,0334,0203,0354,0334,0334,0313,0336,0322,0330,0334,0201,0334,0334,0201,0334,0334,0201,0334,0331,0337,0320,",
    "0223:0304,0335,0335,0331,0306,0350,0362,0203,0335,0335,0335,0335,0335,0312,0336,0203,0335,0335,0203,0354,0335,0335,0335,0335,0335,0337,0322,0335,0336,0330,0334,0334,0334,0334,0313,0336,0342,0337,0312,0335,0336,0342,0334,0334,0342,0330,0335,0335,0335,0335,0335,0336,0201,0334,0334,0342,0335,0335,0334,0334,0334,0336,0342,0334,0334,0342,0335,0335,0335,0335,0335,0337,0331,0335,0337,0330,0334,0337,0331,0334,0337,0320,0330,0304,0335,0335,0306,0350,",
    "0224:0305,0311,0362,0203,0334,0334,0203,0334,0350,0334,0336,0203,0354,0334,0334,0334,0337,0322,0336,0334,0201,0335,0335,0335,0335,0336,0201,0334,0334,0334,0334,0201,0335,0335,0335,0336,0335,0201,0334,0334,0334,0334,0201,0335,0335,0335,0335,0336,0201,0334,0334,0334,0334,0201,0335,0335,0335,0335,0336,0201,0334,0334,0334,0334,0201,0335,0335,0335,0335,0336,0201,0334,0334,0334,0337,0330,0337,0337,0337,0337,0337,0331,0320,",
    "0225:0304,0330,0335,0335,0305,0350,0311,0362,0203,0335,0335,0335,0335,0336,0203,0335,0335,0203,0354,0335,0335,0335,0322,0335,0335,0330,0334,0334,0334,0336,0334,0342,0335,0342,0330,0335,0335,0335,0336,0335,0201,0334,0334,0334,0334,0201,0335,0335,0335,0335,0336,0201,0334,0334,0334,0334,0201,0335,0335,0335,0336,0335,0201,0334,0334,0334,0334,0342,0335,0331,0337,0331,0337,0331,0335,0335,0337,0335,0331,0335,0336,0201,0335,0335,0335,0335,0201,0334,0334,0334,0334,0336,0201,0335,0335,0335,0335,0201,0334,0334,0334,0334,0336,0201,0335,0335,0335,0335,0201,0335,0335,0335,0331,0337,0337,0337,0337,0337,0320,0304,0335,0335,0331,0305,0350,",
    "0226:0313,0333,0342,0336,0332,0342,0336,0333,0342,0332,0332,0342,0336,0332,0342,0333,0333,0342,0333,0333,0342,0333,0333,0342,0333,0337,0337,0337,",
    "0227:0313,0336,0333,0337,0316,0336,0342,0313,0336,0332,0342,0332,0342,0332,0342,0332,0342,0333,0333,0333,0333,0333,0342,0333,0342,0333,0342,0333,0342,0333,0337,0316,0337,0313,",
    "0230:0322,0226,0226,0226,0226,0226,0226,0334,0226,0334,0227,0227,0227,0227,0227,0227,0334,0227,0334,0320,0362,0203,0335,0203,0203,0203,0203,0203,0203,0335,0203,0335,0203,0203,0203,0203,0203,0203,0335,0354,0313,",
    "0231:0313,0304,0336,0332,0336,0336,0334,0362,0203,0335,0203,0334,0203,0203,0335,0203,0203,0334,0203,0335,0203,0203,0335,0203,0334,0203,0203,0203,0335,0203,0203,0203,0203,0203,0203,0335,0203,0203,0203,0334,0203,0335,0203,0203,0335,0203,0334,0203,0203,0335,0203,0203,0334,0203,0335,0203,0203,0354,0335,0333,0333,0333,0333,0333,0337,0337,0337,",
    "0232:0336,0332,0336,0336,0334,0362,0203,0335,0203,0334,0203,0203,0203,0335,0203,0203,0335,0203,0334,0203,0203,0334,0203,0335,0203,0203,0203,0335,0203,0203,0203,0203,0203,0203,0203,0203,0335,0203,0203,0203,0335,0203,0334,0203,0203,0334,0203,0335,0203,0203,0335,0203,0203,0203,0334,0203,0335,0203,0203,0354,0335,0333,0333,0333,0333,0333,0337,0337,0337,",
    "0233:0313,0304,0336,0332,0336,0336,0330,0334,0362,0203,0334,0203,0335,0203,0203,0203,0335,0203,0203,0203,0335,0203,0334,0203,0203,0334,0203,0335,0203,0203,0203,0335,0203,0203,0203,0335,0203,0334,0203,0203,0334,0203,0335,0203,0203,0203,0335,0203,0203,0203,0335,0203,0334,0203,0203,0334,0203,0335,0203,0203,0203,0335,0203,0203,0203,0335,0203,0334,0203,0354,0335,0331,0333,0333,0333,0333,0337,0337,0337,",
    "0234:0322,0336,0336,0330,0332,0362,0203,0203,0203,0334,0203,0203,0203,0334,0203,0203,0203,0334,0203,0203,0203,0354,0335,0335,0335,0331,0342,0332,0332,0332,0342,0335,0337,0337,0201,0334,0201,0334,0336,0336,0342,0335,0336,0332,0334,0335,0335,0335,0337,0337,0337,0342,0335,0335,0336,0336,0331,0331,0331,0336,0333,0334,0337,0342,0336,0332,0337,0337,0337,0342,0335,0336,0336,0336,0331,0337,0332,0332,0342,0333,0333,0337,0337,0321,0200,0336,0332,0333,0337,0320,",
    "0235:0312,0336,0330,0306,0335,0335,0350,0335,0337,0362,0203,0335,0335,0335,0335,0203,0335,0335,0335,0335,0203,0354,0334,0336,0331,0337,0304,0313,",
    "0236:0313,0336,0316,0336,0332,0336,0347,0337,0333,0333,0336,0347,0337,0332,0337,0313,0337,",
    "0237:0200,0336,0330,0332,0336,0330,0325,0235,0331,0331,0335,0335,0235,0331,0322,0335,0330,0235,0331,0335,0335,0330,0235,0334,0326,0330,0235,0331,0331,0335,0335,0235,0333,0333,0325,0336,0341,0335,0335,0330,0330,0330,0330,0322,0341,0320,0337,0350,0335,0304,0236,0350,0335,0304,0330,0236,0330,0350,0335,0304,0236,0350,0335,0304,0330,0236,0330,0350,0335,0304,0236,0350,0335,0304,0330,0236,0330,0350,0335,0304,0236,0350,0335,0330,0304,0236,0333,0331,0333,0336,0331,0333,0337,0314,0337,0200,0336,0313,0336,0331,0333,0337,0337,0337,0336,0336,0330,0332,0327,0336,0330,0332,0336,0336,0332,0332,0332,0332,0331,0331,0331,0332,0332,0332,0333,0333,070,040,0147,0162,0145,0145,0156,0365,0332,0332,0332,0332,0332,0332,0332,0332,061,061,040,0147,0162,0145,0171,0365,061,060,040,0160,0165,0162,0160,0154,0145,0330,0330,0330,0330,0330,0330,0332,0332,0365,061,062,040,0167,0150,0151,0164,0145,0330,0330,0330,0330,0330,0330,0330,0365,071,040,0142,0154,0165,0145,0333,0333,0333,0333,0333,0333,0333,0333,0333,0365,065,040,0162,0145,0144,0333,0333,0333,0333,0333,0333,0333,0333,0333,0365,067,040,0171,0145,0154,0154,0157,0167,0331,0331,0331,0331,0331,0332,0365,066,040,0157,0162,0141,0156,0147,0145,0331,0331,0331,0331,0331,0331,0331,0331,0365,0331,0331,0331,0331,0331,0331,0333,0333,0333,0333,0333,0331,0331,0333,0333,0331,0333,0333,0333,0337,0337,0337,0337,0337,0320,",
    "01220:0333,0220,",
    "01221:0333,0221,",
    "01222:0333,0222,0304,",
    "01223:0333,0223,0314,0304,0313,",
    "01224:0333,0224,0313,0304,",
    "01225:0333,0225,0313,0304,",
    "01226:0226,0200,",
    "01227:0227,0200,",
    "01230:0230,0333,0333,0333,0333,0333,0333,",
    "01231:0333,0231,",
    "01232:0333,0232,",
    "01233:0333,0233,",
    "01234:0333,0234,",
    "01235:0333,0200,0336,0330,0332,0235,0331,0333,0337,",
    "01236:0333,0200,0336,0330,0332,0236,0331,0333,0337,",
    "01237:0333,0237,",
    "0240:0220,0336,0331,0333,0336,0321,0335,0342,0335,0335,0342,0335,0330,0330,0332,0332,0337,0337,",
    "01240:0333,0200,0336,0330,0332,0210,0240,0211,0333,0331,0337,",
    "0241:0220,0336,0321,0343,0332,0350,0335,0336,0342,0334,0334,0342,0335,0304,0337,0333,0337,",
    "01241:0333,0200,0336,0332,0330,0210,0241,0211,0333,0331,0337,",
    "0242:0220,0321,0336,0343,0333,0336,0350,0335,0342,0334,0334,0342,0335,0337,0304,0332,0337,",
    "01242:0333,0200,0336,0330,0332,0210,0242,0211,0333,0331,0337,",
    "0243:0220,0336,0331,0332,0336,0321,0343,0332,0350,0334,0336,0342,0335,0335,0342,0337,0334,0334,0335,0304,0332,0330,0330,0337,0337,0333,",
    "01243:0333,0200,0336,0330,0332,0210,0243,0211,0333,0331,0337,",
    "0244:0220,0336,0331,0333,0336,0321,0343,0333,0350,0336,0335,0342,0334,0334,0342,0335,0337,0304,0333,0330,0330,0337,0337,0332,",
    "01244:0333,0200,0336,0330,0332,0210,0244,0211,0333,0331,0337,",
    "0245:0210,0332,0332,0362,0335,0203,0203,0203,0203,0334,0203,0363,0332,0332,0331,0211,",
    "01245:0333,0200,0336,0330,0332,0336,0245,0337,0333,0331,0337,",
    "0246:0210,0332,0332,0335,0306,0336,0330,0335,0335,0335,0321,0362,0203,0335,0335,0203,0364,0331,0350,0335,0337,0366,0333,0333,0333,0333,0334,0334,0334,0334,0367,0335,0336,0342,0334,0334,0342,0330,0330,0330,0330,0335,0335,0335,0304,0337,0211,",
    "01246:0333,0200,0336,0330,0332,0336,0246,",
    "0247:0330,0332,0336,0332,0336,0221,0333,0333,0333,0222,0333,0333,0333,0223,0333,0333,0333,0225,0333,0331,0331,0331,0332,0332,0332,0332,0332,0332,0332,0332,0332,0332,0332,0332,0333,0333,0226,0331,0331,0331,0333,0333,0333,0333,0333,0333,0333,0333,0333,0333,0333,0333,0333,0330,0333,0330,0330,0333,0330,0331,0332,0332,0332,0332,0332,0332,0332,0332,0332,0332,0332,0332,0227,0333,0333,0333,0230,0333,0331,0331,0331,0331,0332,0332,0332,0330,0332,0332,0332,0332,0332,0332,0333,0333,0231,0333,0333,0333,0232,0331,0333,0330,0333,0333,0233,0333,0333,0333,0234,0330,0330,0332,0330,0332,0332,0337,0337,",
    "01247:0333,0200,0336,0330,0332,0220,0336,0247,0337,0331,0333,0337,"
  ]
}</json>-->	<path d = "M510 410 L510 10 L110 10 L110 410 L510 410 Z" stroke = "#000000" stroke-width = "1" fill = "none" />    <line x1="310" y1="410" x2="310" y2="10" style="stroke:#000000;stroke-width:1" />
    <line x1="510" y1="210" x2="110" y2="210" style="stroke:#000000;stroke-width:1" />
    <line x1="410" y1="410" x2="410" y2="10" style="stroke:#000000;stroke-width:1" />
    <line x1="210" y1="410" x2="210" y2="10" style="stroke:#000000;stroke-width:1" />
    <line x1="460" y1="410" x2="460" y2="10" style="stroke:#000000;stroke-width:1" />
    <line x1="260" y1="410" x2="260" y2="10" style="stroke:#000000;stroke-width:1" />
    <line x1="360" y1="410" x2="360" y2="10" style="stroke:#000000;stroke-width:1" />
    <line x1="160" y1="410" x2="160" y2="10" style="stroke:#000000;stroke-width:1" />
    <line x1="110" y1="310" x2="510" y2="310" style="stroke:#000000;stroke-width:1" />
    <line x1="110" y1="110" x2="510" y2="110" style="stroke:#000000;stroke-width:1" />
    <line x1="110" y1="60" x2="510" y2="60" style="stroke:#000000;stroke-width:1" />
    <line x1="110" y1="260" x2="510" y2="260" style="stroke:#000000;stroke-width:1" />
    <line x1="110" y1="160" x2="510" y2="160" style="stroke:#000000;stroke-width:1" />
    <line x1="110" y1="360" x2="510" y2="360" style="stroke:#000000;stroke-width:1" />
    <line x1="110" y1="410" x2="110" y2="360" style="stroke:#0000ff;stroke-width:2" />
    <line x1="110" y1="360" x2="110" y2="310" style="stroke:#0000ff;stroke-width:2" />
    <line x1="110" y1="310" x2="110" y2="260" style="stroke:#0000ff;stroke-width:2" />
    <line x1="110" y1="260" x2="160" y2="260" style="stroke:#0000ff;stroke-width:2" />
    <line x1="160" y1="260" x2="160" y2="210" style="stroke:#0000ff;stroke-width:2" />
    <line x1="160" y1="210" x2="160" y2="160" style="stroke:#0000ff;stroke-width:2" />
    <line x1="160" y1="160" x2="110" y2="160" style="stroke:#0000ff;stroke-width:2" />
    <line x1="110" y1="160" x2="110" y2="110" style="stroke:#0000ff;stroke-width:2" />
    <line x1="110" y1="110" x2="110" y2="60" style="stroke:#0000ff;stroke-width:2" />
    <line x1="110" y1="60" x2="110" y2="10" style="stroke:#0000ff;stroke-width:2" />
    <line x1="110" y1="10" x2="160" y2="10" style="stroke:#0000ff;stroke-width:2" />
    <line x1="160" y1="10" x2="210" y2="10" style="stroke:#0000ff;stroke-width:2" />
    <line x1="210" y1="10" x2="260" y2="10" style="stroke:#0000ff;stroke-width:2" />
    <line x1="260" y1="10" x2="260" y2="60" style="stroke:#0000ff;stroke-width:2" />
    <line x1="260" y1="60" x2="310" y2="60" style="stroke:#0000ff;stroke-width:2" />
    <line x1="310" y1="60" x2="360" y2="60" style="stroke:#0000ff;stroke-width:2" />
    <line x1="360" y1="60" x2="360" y2="10" style="stroke:#0000ff;stroke-width:2" />
    <line x1="360" y1="10" x2="410" y2="10" style="stroke:#0000ff;stroke-width:2" />
    <line x1="410" y1="10" x2="460" y2="10" style="stroke:#0000ff;stroke-width:2" />
    <line x1="460" y1="10" x2="510" y2="10" style="stroke:#0000ff;stroke-width:2" />
    <line x1="510" y1="10" x2="510" y2="60" style="stroke:#0000ff;stroke-width:2" />
    <line x1="510" y1="60" x2="510" y2="110" style="stroke:#0000ff;stroke-width:2" />
    <line x1="510" y1="110" x2="510" y2="160" style="stroke:#0000ff;stroke-width:2" />
    <line x1="510" y1="160" x2="460" y2="160" style="stroke:#0000ff;stroke-width:2" />
    <line x1="460" y1="160" x2="460" y2="210" style="stroke:#0000ff;stroke-width:2" />
    <line x1="460" y1="210" x2="460" y2="260" style="stroke:#0000ff;stroke-width:2" />
    <line x1="460" y1="260" x2="510" y2="260" style="stroke:#0000ff;stroke-width:2" />
    <line x1="510" y1="260" x2="510" y2="310" style="stroke:#0000ff;stroke-width:2" />
    <line x1="510" y1="310" x2="510" y2="360" style="stroke:#0000ff;stroke-width:2" />
    <line x1="510" y1="360" x2="510" y2="410" style="stroke:#0000ff;stroke-width:2" />
    <line x1="510" y1="410" x2="460" y2="410" style="stroke:#0000ff;stroke-width:2" />
    <line x1="460" y1="410" x2="410" y2="410" style="stroke:#0000ff;stroke-width:2" />
    <line x1="410" y1="410" x2="360" y2="410" style="stroke:#0000ff;stroke-width:2" />
    <line x1="360" y1="410" x2="360" y2="360" style="stroke:#0000ff;stroke-width:2" />
    <line x1="360" y1="360" x2="310" y2="360" style="stroke:#0000ff;stroke-width:2" />
    <line x1="310" y1="360" x2="260" y2="360" style="stroke:#0000ff;stroke-width:2" />
    <line x1="260" y1="360" x2="260" y2="410" style="stroke:#0000ff;stroke-width:2" />
    <line x1="260" y1="410" x2="210" y2="410" style="stroke:#0000ff;stroke-width:2" />
    <line x1="210" y1="410" x2="160" y2="410" style="stroke:#0000ff;stroke-width:2" />
    <line x1="160" y1="410" x2="110" y2="410" style="stroke:#0000ff;stroke-width:2" />
    <line x1="160" y1="360" x2="210" y2="360" style="stroke:#ff0000;stroke-width:2" />
    <line x1="210" y1="360" x2="260" y2="360" style="stroke:#ff0000;stroke-width:2" />
    <line x1="260" y1="360" x2="260" y2="410" style="stroke:#ff0000;stroke-width:2" />
    <line x1="260" y1="410" x2="310" y2="410" style="stroke:#ff0000;stroke-width:2" />
    <line x1="310" y1="410" x2="360" y2="410" style="stroke:#ff0000;stroke-width:2" />
    <line x1="360" y1="410" x2="360" y2="360" style="stroke:#ff0000;stroke-width:2" />
    <line x1="360" y1="360" x2="410" y2="360" style="stroke:#ff0000;stroke-width:2" />
    <line x1="410" y1="360" x2="460" y2="360" style="stroke:#ff0000;stroke-width:2" />
    <line x1="460" y1="360" x2="510" y2="360" style="stroke:#ff0000;stroke-width:2" />
    <line x1="510" y1="360" x2="510" y2="310" style="stroke:#ff0000;stroke-width:2" />
    <line x1="510" y1="310" x2="510" y2="260" style="stroke:#ff0000;stroke-width:2" />
    <line x1="510" y1="260" x2="460" y2="260" style="stroke:#ff0000;stroke-width:2" />
    <line x1="460" y1="260" x2="460" y2="210" style="stroke:#ff0000;stroke-width:2" />
    <line x1="460" y1="210" x2="460" y2="160" style="stroke:#ff0000;stroke-width:2" />
    <line x1="460" y1="160" x2="510" y2="160" style="stroke:#ff0000;stroke-width:2" />
    <line x1="510" y1="160" x2="510" y2="110" style="stroke:#ff0000;stroke-width:2" />
    <line x1="510" y1="110" x2="510" y2="60" style="stroke:#ff0000;stroke-width:2" />
    <line x1="510" y1="60" x2="510" y2="10" style="stroke:#ff0000;stroke-width:2" />
    <line x1="510" y1="10" x2="460" y2="10" style="stroke:#ff0000;stroke-width:2" />
    <line x1="460" y1="10" x2="410" y2="10" style="stroke:#ff0000;stroke-width:2" />
    <line x1="410" y1="10" x2="360" y2="10" style="stroke:#ff0000;stroke-width:2" />
    <line x1="360" y1="10" x2="310" y2="10" style="stroke:#ff0000;stroke-width:2" />
    <line x1="310" y1="10" x2="260" y2="10" style="stroke:#ff0000;stroke-width:2" />
    <line x1="260" y1="10" x2="210" y2="10" style="stroke:#ff0000;stroke-width:2" />
    <line x1="210" y1="10" x2="160" y2="10" style="stroke:#ff0000;stroke-width:2" />
    <line x1="160" y1="10" x2="160" y2="60" style="stroke:#ff0000;stroke-width:2" />
    <line x1="160" y1="60" x2="160" y2="110" style="stroke:#ff0000;stroke-width:2" />
    <line x1="160" y1="110" x2="160" y2="160" style="stroke:#ff0000;stroke-width:2" />
    <line x1="160" y1="160" x2="110" y2="160" style="stroke:#ff0000;stroke-width:2" />
    <line x1="110" y1="160" x2="110" y2="210" style="stroke:#ff0000;stroke-width:2" />
    <line x1="110" y1="210" x2="110" y2="260" style="stroke:#ff0000;stroke-width:2" />
    <line x1="110" y1="260" x2="160" y2="260" style="stroke:#ff0000;stroke-width:2" />
    <line x1="160" y1="260" x2="160" y2="310" style="stroke:#ff0000;stroke-width:2" />
    <line x1="160" y1="310" x2="160" y2="360" style="stroke:#ff0000;stroke-width:2" />
	<path d = "M160 360 L160 310 L110 310 L110 360 L160 360 Z" stroke = "#000000" stroke-width = "1" fill = "#000000" />	<path d = "M260 360 L260 310 L210 310 L210 360 L260 360 Z" stroke = "#000000" stroke-width = "1" fill = "#000000" />	<path d = "M360 360 L360 310 L310 310 L310 360 L360 360 Z" stroke = "#000000" stroke-width = "1" fill = "#000000" />	<path d = "M460 360 L460 310 L410 310 L410 360 L460 360 Z" stroke = "#000000" stroke-width = "1" fill = "#000000" />	<path d = "M510 410 L510 360 L460 360 L460 410 L510 410 Z" stroke = "#000000" stroke-width = "1" fill = "#000000" />	<path d = "M410 410 L410 360 L360 360 L360 410 L410 410 Z" stroke = "#000000" stroke-width = "1" fill = "#000000" />	<path d = "M310 410 L310 360 L260 360 L260 410 L310 410 Z" stroke = "#000000" stroke-width = "1" fill = "#000000" />	<path d = "M210 410 L210 360 L160 360 L160 410 L210 410 Z" stroke = "#000000" stroke-width = "1" fill = "#000000" />	<path d = "M210 310 L210 260 L160 260 L160 310 L210 310 Z" stroke = "#000000" stroke-width = "1" fill = "#000000" />	<path d = "M310 310 L310 260 L260 260 L260 310 L310 310 Z" stroke = "#000000" stroke-width = "1" fill = "#000000" />	<path d = "M410 310 L410 260 L360 260 L360 310 L410 310 Z" stroke = "#000000" stroke-width = "1" fill = "#000000" />	<path d = "M510 310 L510 260 L460 260 L460 310 L510 310 Z" stroke = "#000000" stroke-width = "1" fill = "#000000" />	<path d = "M460 260 L460 210 L410 210 L410 260 L460 260 Z" stroke = "#000000" stroke-width = "1" fill = "#000000" />	<path d = "M360 260 L360 210 L310 210 L310 260 L360 260 Z" stroke = "#000000" stroke-width = "1" fill = "#000000" />	<path d = "M260 260 L260 210 L210 210 L210 260 L260 260 Z" stroke = "#000000" stroke-width = "1" fill = "#000000" />	<path d = "M160 260 L160 210 L110 210 L110 260 L160 260 Z" stroke = "#000000" stroke-width = "1" fill = "#000000" />	<path d = "M210 210 L210 160 L160 160 L160 210 L210 210 Z" stroke = "#000000" stroke-width = "1" fill = "#000000" />	<path d = "M310 210 L310 160 L260 160 L260 210 L310 210 Z" stroke = "#000000" stroke-width = "1" fill = "#000000" />	<path d = "M410 210 L410 160 L360 160 L360 210 L410 210 Z" stroke = "#000000" stroke-width = "1" fill = "#000000" />	<path d = "M510 210 L510 160 L460 160 L460 210 L510 210 Z" stroke = "#000000" stroke-width = "1" fill = "#000000" />	<path d = "M460 160 L460 110 L410 110 L410 160 L460 160 Z" stroke = "#000000" stroke-width = "1" fill = "#000000" />	<path d = "M360 160 L360 110 L310 110 L310 160 L360 160 Z" stroke = "#000000" stroke-width = "1" fill = "#000000" />	<path d = "M260 160 L260 110 L210 110 L210 160 L260 160 Z" stroke = "#000000" stroke-width = "1" fill = "#000000" />	<path d = "M160 160 L160 110 L110 110 L110 160 L160 160 Z" stroke = "#000000" stroke-width = "1" fill = "#000000" />	<path d = "M210 110 L210 60 L160 60 L160 110 L210 110 Z" stroke = "#000000" stroke-width = "1" fill = "#000000" />	<path d = "M310 110 L310 60 L260 60 L260 110 L310 110 Z" stroke = "#000000" stroke-width = "1" fill = "#000000" />	<path d = "M410 110 L410 60 L360 60 L360 110 L410 110 Z" stroke = "#000000" stroke-width = "1" fill = "#000000" />	<path d = "M510 110 L510 60 L460 60 L460 110 L510 110 Z" stroke = "#000000" stroke-width = "1" fill = "#000000" />	<path d = "M460 60 L460 10 L410 10 L410 60 L460 60 Z" stroke = "#000000" stroke-width = "1" fill = "#000000" />	<path d = "M360 60 L360 10 L310 10 L310 60 L360 60 Z" stroke = "#000000" stroke-width = "1" fill = "#000000" />	<path d = "M260 60 L260 10 L210 10 L210 60 L260 60 Z" stroke = "#000000" stroke-width = "1" fill = "#000000" />	<path d = "M160 60 L160 10 L110 10 L110 60 L160 60 Z" stroke = "#000000" stroke-width = "1" fill = "#000000" /></svg>