<svg width="400" height="400" viewbox = "0 0 400 400"  xmlns="http://www.w3.org/2000/svg">
<!--<json>{
  "glyph": "0331,0335,0331,0337,0221,0221,0221,0221,0221,0221,0221,",
  "x0": 200,
  "y0": 294.3355918619484,
  "unit": 336.37499746628055,
  "width": 400,
  "height": 400,
  "style": {
    "color0": "black",
    "fill0": "black",
    "line0": 1,
    "color1": "black",
    "fill1": "black",
    "line1": 5,
    "color2": "red",
    "fill2": "red",
    "line2": 2,
    "color3": "#FF7900",
    "fill3": "#FF7900",
    "line3": 2,
    "color4": "yellow",
    "fill4": "yellow",
    "line4": 2,
    "color5": "green",
    "fill5": "green",
    "line5": 2,
    "color6": "blue",
    "fill6": "blue",
    "line6": 2,
    "color7": "black",
    "fill7": "white",
    "line7": 1
  },
  "shapes": [
    "0220:0327,0337,0337,0337,0337,0337,0347,0336,0336,0336,0336,0336,0321,",
    "0221:0305,0201,0334,0201,0334,0201,0334,0201,0334,0201,0334,0311,0350,0334,0334,0336,0362,0203,0335,0335,0335,0336,0203,0335,0335,0335,0337,0203,0363,0331,0334,0334,0334,0362,0203,0334,0334,0334,0334,0203,0334,0334,0334,0336,0203,0363,0331,0334,0334,0334,0334,0334,0337,0362,0203,0334,0334,0334,0334,0203,0334,0334,0334,0336,0203,0363,0331,0335,0335,0335,0335,0335,0337,0362,0203,0334,0334,0334,0334,0203,0334,0334,0334,0336,0203,0363,0331,0335,0335,0335,0362,0203,0335,0335,0335,0337,0203,0335,0335,0335,0335,0203,0363,0335,0335,0335,0336,0351,",
    "0222:0221,0221,0221,",
    "0230:0336,0336,0330,0336,0330,0336,0334,0362,0203,0335,0203,0203,0203,0334,0203,0335,0350,0310,0335,0337,0203,0203,0335,0335,0203,0203,0335,0335,0335,0336,0203,0334,0334,0203,0203,0203,0335,0335,0203,0363,0304,0335,0313,0337,0330,0337,0337,0331,0337,",
    "01220:0333,0200,0336,0330,0332,0336,0327,0347,0337,0331,0333,0337,0320,",
    "01221:0333,0200,0221,0337,0313,0304,",
    "01222:0333,0200,0222,0337,0313,0304,",
    "01223:0333,0200,0223,0337,0313,0304,",
    "01224:0333,0200,0224,0337,0313,0304,",
    "01225:0333,0225,0313,0304,",
    "01226:0226,0200,",
    "01227:0227,0200,",
    "01230:0333,0200,0336,0332,0330,0230,0331,0333,0337,",
    "01231:0333,0231,",
    "01232:0333,0232,",
    "01233:0333,0233,",
    "01234:0333,0234,",
    "01235:0333,0200,0336,0330,0332,0235,0331,0333,0337,",
    "01236:0333,0200,0336,0330,0332,0236,0331,0333,0337,",
    "01237:0333,0237,",
    "0240:0220,0336,0331,0333,0336,0321,0335,0342,0335,0335,0342,0335,0330,0330,0332,0332,0337,0337,",
    "01240:0333,0200,0336,0330,0332,0210,0240,0211,0333,0331,0337,",
    "0241:0220,0336,0321,0343,0332,0350,0335,0336,0342,0334,0334,0342,0335,0304,0337,0333,0337,",
    "01241:0333,0200,0336,0332,0330,0210,0241,0211,0333,0331,0337,",
    "0242:0220,0321,0336,0343,0333,0336,0350,0335,0342,0334,0334,0342,0335,0337,0304,0332,0337,",
    "01242:0333,0200,0336,0330,0332,0210,0242,0211,0333,0331,0337,",
    "0243:0220,0336,0331,0332,0336,0321,0343,0332,0350,0334,0336,0342,0335,0335,0342,0337,0334,0334,0335,0304,0332,0330,0330,0337,0337,0333,",
    "01243:0333,0200,0336,0330,0332,0210,0243,0211,0333,0331,0337,",
    "0244:0220,0336,0331,0333,0336,0321,0343,0333,0350,0336,0335,0342,0334,0334,0342,0335,0337,0304,0333,0330,0330,0337,0337,0332,",
    "01244:0333,0200,0336,0330,0332,0210,0244,0211,0333,0331,0337,",
    "0245:0210,0332,0332,0362,0335,0203,0203,0203,0203,0334,0203,0363,0332,0332,0331,0211,",
    "01245:0333,0200,0336,0330,0332,0336,0245,0337,0333,0331,0337,",
    "0246:0210,0332,0332,0335,0306,0336,0330,0335,0335,0335,0321,0362,0203,0335,0335,0203,0364,0331,0350,0335,0337,0366,0333,0333,0333,0333,0334,0334,0334,0334,0367,0335,0336,0342,0334,0334,0342,0330,0330,0330,0330,0335,0335,0335,0304,0337,0211,",
    "01246:0333,0200,0336,0330,0332,0336,0246,",
    "0247:0330,0332,0336,0332,0336,0221,0333,0333,0333,0222,0333,0333,0333,0223,0333,0333,0333,0225,0333,0331,0331,0331,0332,0332,0332,0332,0332,0332,0332,0332,0332,0332,0332,0332,0333,0333,0226,0331,0331,0331,0333,0333,0333,0333,0333,0333,0333,0333,0333,0333,0333,0333,0333,0330,0333,0330,0330,0333,0330,0331,0332,0332,0332,0332,0332,0332,0332,0332,0332,0332,0332,0332,0227,0333,0333,0333,0230,0333,0331,0331,0331,0331,0332,0332,0332,0330,0332,0332,0332,0332,0332,0332,0333,0333,0231,0333,0333,0333,0232,0331,0333,0330,0333,0333,0233,0333,0333,0333,0234,0330,0330,0332,0330,0332,0332,0337,0337,",
    "01247:0333,0200,0336,0330,0332,0220,0336,0247,0337,0331,0333,0337,"
  ]
}</json>-->    <line x1="-136" y1="631" x2="536" y2="631" style="stroke:#000000;stroke-width:1" />
    <line x1="536" y1="631" x2="744" y2="-9" style="stroke:#000000;stroke-width:1" />
    <line x1="744" y1="-9" x2="200" y2="-405" style="stroke:#000000;stroke-width:1" />
    <line x1="200" y1="-405" x2="-344" y2="-9" style="stroke:#000000;stroke-width:1" />
    <line x1="-344" y1="-9" x2="-136" y2="631" style="stroke:#000000;stroke-width:1" />
	<path d = "M-136 631 L-8 235 L200 386 L-136 631 Z" stroke = "#000000" stroke-width = "1" fill = "#000000" />	<path d = "M200 386 L536 631 L408 235 L200 386 Z" stroke = "#000000" stroke-width = "1" fill = "#000000" />	<path d = "M408 235 L744 -9 L328 -9 L408 235 Z" stroke = "#000000" stroke-width = "1" fill = "#000000" />	<path d = "M328 -9 L200 -405 L72 -9 L328 -9 Z" stroke = "#000000" stroke-width = "1" fill = "#000000" />	<path d = "M72 -9 L-8 235 L-344 -9 L72 -9 Z" stroke = "#000000" stroke-width = "1" fill = "#000000" />    <line x1="72" y1="-9" x2="-8" y2="235" style="stroke:#000000;stroke-width:1" />
    <line x1="-8" y1="235" x2="200" y2="386" style="stroke:#000000;stroke-width:1" />
    <line x1="200" y1="386" x2="408" y2="235" style="stroke:#000000;stroke-width:1" />
    <line x1="408" y1="235" x2="328" y2="-9" style="stroke:#000000;stroke-width:1" />
    <line x1="328" y1="-9" x2="72" y2="-9" style="stroke:#000000;stroke-width:1" />
	<path d = "M72 -9 L200 84 L121 142 L72 -9 Z" stroke = "#000000" stroke-width = "1" fill = "#000000" />	<path d = "M121 142 L-8 235 L151 235 L121 142 Z" stroke = "#000000" stroke-width = "1" fill = "#000000" />	<path d = "M151 235 L200 386 L249 235 L151 235 Z" stroke = "#000000" stroke-width = "1" fill = "#000000" />	<path d = "M249 235 L408 235 L279 142 L249 235 Z" stroke = "#000000" stroke-width = "1" fill = "#000000" />	<path d = "M279 142 L200 84 L328 -9 L279 142 Z" stroke = "#000000" stroke-width = "1" fill = "#000000" />    <line x1="279" y1="142" x2="200" y2="84" style="stroke:#000000;stroke-width:1" />
    <line x1="200" y1="84" x2="121" y2="142" style="stroke:#000000;stroke-width:1" />
    <line x1="121" y1="142" x2="151" y2="235" style="stroke:#000000;stroke-width:1" />
    <line x1="151" y1="235" x2="249" y2="235" style="stroke:#000000;stroke-width:1" />
    <line x1="249" y1="235" x2="279" y2="142" style="stroke:#000000;stroke-width:1" />
	<path d = "M279 142 L230 178 L219 142 L279 142 Z" stroke = "#000000" stroke-width = "1" fill = "#000000" />	<path d = "M219 142 L200 84 L181 142 L219 142 Z" stroke = "#000000" stroke-width = "1" fill = "#000000" />	<path d = "M181 142 L121 142 L170 178 L181 142 Z" stroke = "#000000" stroke-width = "1" fill = "#000000" />	<path d = "M170 178 L151 235 L200 200 L170 178 Z" stroke = "#000000" stroke-width = "1" fill = "#000000" />	<path d = "M200 200 L230 178 L249 235 L200 200 Z" stroke = "#000000" stroke-width = "1" fill = "#000000" />    <line x1="200" y1="200" x2="230" y2="178" style="stroke:#000000;stroke-width:1" />
    <line x1="230" y1="178" x2="219" y2="142" style="stroke:#000000;stroke-width:1" />
    <line x1="219" y1="142" x2="181" y2="142" style="stroke:#000000;stroke-width:1" />
    <line x1="181" y1="142" x2="170" y2="178" style="stroke:#000000;stroke-width:1" />
    <line x1="170" y1="178" x2="200" y2="200" style="stroke:#000000;stroke-width:1" />
	<path d = "M200 200 L193 178 L207 178 L200 200 Z" stroke = "#000000" stroke-width = "1" fill = "#000000" />	<path d = "M207 178 L230 178 L212 164 L207 178 Z" stroke = "#000000" stroke-width = "1" fill = "#000000" />	<path d = "M212 164 L219 142 L200 156 L212 164 Z" stroke = "#000000" stroke-width = "1" fill = "#000000" />	<path d = "M200 156 L181 142 L188 164 L200 156 Z" stroke = "#000000" stroke-width = "1" fill = "#000000" />	<path d = "M188 164 L193 178 L170 178 L188 164 Z" stroke = "#000000" stroke-width = "1" fill = "#000000" />    <line x1="188" y1="164" x2="193" y2="178" style="stroke:#000000;stroke-width:1" />
    <line x1="193" y1="178" x2="207" y2="178" style="stroke:#000000;stroke-width:1" />
    <line x1="207" y1="178" x2="212" y2="164" style="stroke:#000000;stroke-width:1" />
    <line x1="212" y1="164" x2="200" y2="156" style="stroke:#000000;stroke-width:1" />
    <line x1="200" y1="156" x2="188" y2="164" style="stroke:#000000;stroke-width:1" />
	<path d = "M188 164 L197 164 L196 169 L188 164 Z" stroke = "#000000" stroke-width = "1" fill = "#000000" />	<path d = "M196 169 L193 178 L200 172 L196 169 Z" stroke = "#000000" stroke-width = "1" fill = "#000000" />	<path d = "M200 172 L207 178 L204 169 L200 172 Z" stroke = "#000000" stroke-width = "1" fill = "#000000" />	<path d = "M204 169 L212 164 L203 164 L204 169 Z" stroke = "#000000" stroke-width = "1" fill = "#000000" />	<path d = "M203 164 L197 164 L200 156 L203 164 Z" stroke = "#000000" stroke-width = "1" fill = "#000000" />    <line x1="203" y1="164" x2="197" y2="164" style="stroke:#000000;stroke-width:1" />
    <line x1="197" y1="164" x2="196" y2="169" style="stroke:#000000;stroke-width:1" />
    <line x1="196" y1="169" x2="200" y2="172" style="stroke:#000000;stroke-width:1" />
    <line x1="200" y1="172" x2="204" y2="169" style="stroke:#000000;stroke-width:1" />
    <line x1="204" y1="169" x2="203" y2="164" style="stroke:#000000;stroke-width:1" />
	<path d = "M203 164 L202 167 L200 166 L203 164 Z" stroke = "#000000" stroke-width = "1" fill = "#000000" />	<path d = "M200 166 L197 164 L198 167 L200 166 Z" stroke = "#000000" stroke-width = "1" fill = "#000000" />	<path d = "M198 167 L196 169 L199 169 L198 167 Z" stroke = "#000000" stroke-width = "1" fill = "#000000" />	<path d = "M199 169 L200 172 L201 169 L199 169 Z" stroke = "#000000" stroke-width = "1" fill = "#000000" />	<path d = "M201 169 L202 167 L204 169 L201 169 Z" stroke = "#000000" stroke-width = "1" fill = "#000000" />    <line x1="201" y1="169" x2="202" y2="167" style="stroke:#000000;stroke-width:1" />
    <line x1="202" y1="167" x2="200" y2="166" style="stroke:#000000;stroke-width:1" />
    <line x1="200" y1="166" x2="198" y2="167" style="stroke:#000000;stroke-width:1" />
    <line x1="198" y1="167" x2="199" y2="169" style="stroke:#000000;stroke-width:1" />
    <line x1="199" y1="169" x2="201" y2="169" style="stroke:#000000;stroke-width:1" />
	<path d = "M201 169 L200 168 L201 168 L201 169 Z" stroke = "#000000" stroke-width = "1" fill = "#000000" />	<path d = "M201 168 L202 167 L200 167 L201 168 Z" stroke = "#000000" stroke-width = "1" fill = "#000000" />	<path d = "M200 167 L200 166 L200 167 L200 167 Z" stroke = "#000000" stroke-width = "1" fill = "#000000" />	<path d = "M200 167 L198 167 L199 168 L200 167 Z" stroke = "#000000" stroke-width = "1" fill = "#000000" />	<path d = "M199 168 L200 168 L199 169 L199 168 Z" stroke = "#000000" stroke-width = "1" fill = "#000000" /></svg>